<svg width="175" height="175" viewBox="0 0 175 175" fill="none" xmlns="http://www.w3.org/2000/svg">
<rect width="175" height="175" rx="15" fill="#02AF9D"/>
<path d="M132.574 120.301C132.574 121.383 131.692 122.256 130.607 122.256C120.818 122.256 112.884 114.373 112.884 104.647V72.9933C112.884 58.9455 101.422 47.5605 87.2871 47.5605C73.1525 47.5605 62.3198 58.9493 62.3198 72.9933V84.7191C62.2972 85.779 63.1453 86.6553 64.2082 86.674C64.2233 86.674 64.2346 86.674 64.2497 86.674H75.4329C76.5185 86.6965 77.4193 85.8389 77.4419 84.7566C77.4419 84.7416 77.4419 84.7303 77.4419 84.7154V72.5177C77.4419 67.1135 81.8481 62.7355 87.2871 62.7355C92.7261 62.7355 97.1323 67.1135 97.1323 72.5177V146.045C97.1097 147.146 96.1937 148.022 95.0856 148C85.3422 148 77.4419 140.15 77.4419 130.469C77.4419 130.443 77.4419 130.416 77.4419 130.39V106.912C77.4193 105.826 76.526 104.957 75.4329 104.957H64.2497C63.183 104.957 62.3198 105.815 62.3198 106.875C62.3198 106.89 62.3198 106.901 62.3198 106.916V114.743C62.3198 124.469 53.7562 132.353 43.9675 132.353C42.8782 132.353 42 131.476 42 130.398V72.997C42 48.1447 62.2746 28 87.2871 28C112.3 28 132.574 48.1447 132.574 72.997V120.301Z" fill="white"/>
</svg>
