<?xml version="1.0" encoding="UTF-8" standalone="no"?>
<svg
   id="ee6b7bfd-a4f7-44ee-956a-1e0f86315052"
   data-name="Artwork"
   viewBox="0 0 1934.6168 441.634"
   version="1.1"
   sodipodi:docname="alloydb.svg"
   width="1934.6168"
   height="441.634"
   inkscape:version="1.1.2 (0a00cf5339, 2022-02-04)"
   xmlns:inkscape="http://www.inkscape.org/namespaces/inkscape"
   xmlns:sodipodi="http://sodipodi.sourceforge.net/DTD/sodipodi-0.dtd"
   xmlns="http://www.w3.org/2000/svg"
   xmlns:svg="http://www.w3.org/2000/svg">
  <defs
     id="defs19" />
  <sodipodi:namedview
     id="namedview17"
     pagecolor="#505050"
     bordercolor="#eeeeee"
     borderopacity="1"
     inkscape:pageshadow="0"
     inkscape:pageopacity="0"
     inkscape:pagecheckerboard="0"
     showgrid="false"
     fit-margin-top="0"
     fit-margin-left="0"
     fit-margin-right="0"
     fit-margin-bottom="0"
     inkscape:zoom="0.32324219"
     inkscape:cx="1536"
     inkscape:cy="-105.18429"
     inkscape:window-width="2470"
     inkscape:window-height="1409"
     inkscape:window-x="2560"
     inkscape:window-y="0"
     inkscape:window-maximized="1"
     inkscape:current-layer="ee6b7bfd-a4f7-44ee-956a-1e0f86315052" />
  <g
     id="g7995"
     transform="translate(-48,-35.183)">
    <polygon
       points="89.6,347.711 89.6,183.024 48,161.83 48,373.508 256,476.817 464,373.508 464,161.81 422.4,183.002 422.4,347.711 256,430.383 "
       fill="#4285f4"
       id="polygon2" />
    <polygon
       points="463.99,138.487 256,35.183 48,138.492 48,138.504 94.164,162.022 256,81.617 417.816,162.012 "
       fill="#4285f4"
       id="polygon4" />
    <polygon
       points="151.761,214.747 110.311,193.638 110.311,335.482 151.761,355.636 "
       fill="#669df6"
       id="polygon6" />
    <polygon
       points="360.066,214.747 401.516,193.638 401.516,335.482 360.066,355.636 "
       fill="#669df6"
       id="polygon8" />
    <polygon
       points="352.591,195.024 394.989,173.518 255.99,104.704 116.643,173.518 159.039,195.024 255.815,147.161 "
       fill="#aecbfa"
       id="polygon10" />
    <polygon
       points="172.627,211.314 172.627,248.752 255.99,291.213 339.121,248.752 339.121,211.661 255.815,170.342 "
       fill="#aecbfa"
       id="polygon12" />
    <polygon
       points="172.827,319.837 255.815,360.855 339.121,319.679 339.121,272.218 255.815,314.451 172.827,272.926 "
       fill="#669df6"
       id="polygon14" />
  </g>
  <g
     aria-label="AlloyDB"
     id="text1730"
     style="font-size:400px;line-height:143.6%;font-family:'Times New Roman';-inkscape-font-specification:'Times New Roman';text-align:end;letter-spacing:8px;word-spacing:0px;text-anchor:end;stroke-width:1px">
    <path
       d="m 620.6194,114.03401 -46.8,129.2 h 95.2 l -46.8,-129.2 z m -87.2,241.2 h -40.8 l 108,-286.400001 h 41.6 l 108,286.400001 h -40.8 l -27.6,-77.6 h -120.4 z"
       style="font-family:'Product Sans';-inkscape-font-specification:'Product Sans'"
       id="path8116" />
    <path
       d="M 822.2191,68.834009 V 355.23401 h -36.8 V 68.834009 Z"
       style="font-family:'Product Sans';-inkscape-font-specification:'Product Sans'"
       id="path8118" />
    <path
       d="M 911.81853,68.834009 V 355.23401 h -36.8 V 68.834009 Z"
       style="font-family:'Product Sans';-inkscape-font-specification:'Product Sans'"
       id="path8120" />
    <path
       d="m 951.41753,257.23401 q 0,-45.2 28.4,-74.8 28.79997,-29.6 72.39997,-29.6 43.6,0 72,29.6 28.8,29.6 28.8,74.8 0,45.6 -28.8,74.8 -28.4,29.6 -72,29.6 -43.6,0 -72.39997,-29.6 -28.4,-29.6 -28.4,-74.8 z m 36.8,0 q 0,31.6 18.39997,51.2 18.4,19.6 45.6,19.6 27.2,0 45.6,-19.6 18.4,-19.6 18.4,-51.2 0,-31.2 -18.4,-50.8 -18.8,-20 -45.6,-20 -26.8,0 -45.6,20 -18.39997,19.6 -18.39997,50.8 z"
       style="font-family:'Product Sans';-inkscape-font-specification:'Product Sans'"
       id="path8122" />
    <path
       d="m 1361.8171,159.23401 -122.8,282.4 h -38 l 45.6,-98.8 -80.8,-183.6 h 40 l 58.4,140.8 h 0.8 l 56.8,-140.8 z"
       style="font-family:'Product Sans';-inkscape-font-specification:'Product Sans'"
       id="path8124" />
    <path
       d="M 1400.2168,355.23401 V 68.834009 h 87.6 q 65.6,0 105.2,39.600001 40,39.6 40,103.6 0,64.4 -40,104 -39.6,39.2 -105.2,39.2 z m 36.8,-251.2 v 216 h 50.8 q 50,0 78.8,-28.4 28.8,-28.8 28.8,-79.6 0,-50.4 -28.8,-79.2 -28.8,-28.8 -78.8,-28.8 z"
       style="font-family:'Product Sans';-inkscape-font-specification:'Product Sans'"
       id="path8126" />
    <path
       d="M 1684.6168,355.23401 V 68.834009 h 103.6 q 34,0 58.4,22.4 24.4,22.000001 24.4,55.600001 0,42.4 -38.8,59.6 v 1.6 q 22,7.2 35.2,25.2 13.2,17.6 13.2,40.4 0,35.2 -25.6,58.4 -24.8,23.2 -61.2,23.2 z m 36.8,-251.2 v 87.6 h 66.8 q 19.6,0 32.8,-13.2 13.2,-13.6 13.2,-30.8 0,-16.8 -12.8,-30.4 -12.8,-13.2 -31.6,-13.2 z m 0,122 v 94 h 74 q 20,0 34,-14 13.6,-14 13.6,-33.2 0,-18.8 -14,-32.8 -14,-14 -35.2,-14 z"
       style="font-family:'Product Sans';-inkscape-font-specification:'Product Sans'"
       id="path8128" />
  </g>
</svg>
