<svg xmlns="http://www.w3.org/2000/svg" width="577" height="133" viewBox="-17 330 577 133" enable-background="new -17 330 577 133"><title>logo</title><path d="M182.3 426.9c-20.3 0-30.5-14.6-30.5-30.8 0-16.1 10.6-30.6 30.7-30.6 7.7 0 13.2 1.7 17.9 4.7l-5.8 9.5c-3.3-2.1-6.9-3.4-12.3-3.4-10.9 0-16.7 8.7-16.7 19.5 0 11.1 5.6 20.3 16.9 20.3 6.4 0 10.2-2.2 13.3-4.5l5.3 9.1c-3 2.7-10.1 6.2-18.8 6.2zm43.1-36.4c-6.5 0-8.6 5.5-8.6 13.5s2.6 13.7 9.1 13.7c6.6 0 8.8-5.4 8.8-13.4-.1-8-2.7-13.8-9.3-13.8zm.2 36.4c-15.2 0-21.8-11.4-21.8-22.6 0-11.2 6.6-22.9 21.8-22.9s22.1 11.3 22.1 22.5c-.1 11.1-6.8 23-22.1 23zm41.2-44.4v27.8c0 4.3 1.5 6.4 5.6 6.4 4.4 0 7.7-4.2 8.6-5.2v-29h12.2v30.6c0 5.7.6 10.1 1.2 12.7h-12.1c-.4-1.2-.8-4-.9-5.8-2.3 3-6.8 6.8-14 6.8-9.6 0-13-6.1-13-14.1v-30.3h12.4v.1zm56.5 44.4c-14 0-22.6-9.1-22.6-22.7 0-14.6 9.7-22.8 23-22.8 7 0 11.2 2.1 13.3 3.4l-3.9 8.4c-1.9-1.2-4.7-2.5-9-2.5-6.8 0-10.4 5.3-10.4 13.2s3.4 13.6 10.7 13.6c5 0 7.9-1.8 9.2-2.6l3.7 8.2c-2 1.3-6 3.8-14 3.8zm46.8-1V398c0-4.3-1.5-6.4-5.6-6.4-4.4 0-7.8 4.1-8.7 5.2v29h-12.2v-64h12.2v25.8c2.2-2.4 6.4-6.2 13.5-6.2 9.6 0 13 6.1 13 14.1v30.3h-12.2v.1zm34.4-9.5c.8.3 2.6.9 5.8.9 6.3 0 10.2-4.6 10.2-13.5 0-8-2.7-12.8-8.9-12.8-3.6 0-6.4 2.3-7.1 3.2v22.2zm0-54.5v24c2-2 5.8-4.5 10.6-4.5 10.8 0 18.4 7.4 18.4 22.4 0 14.9-10 23.1-23.2 23.1-9.9 0-15.9-2.5-18.1-3.5v-61.6h12.3v.1zm58.1 44.9h-1.5c-6.7 0-11.4 2-11.4 6.9 0 3.1 2.5 4.4 5.2 4.4 4.1 0 6.5-2.4 7.7-3.6v-7.7zm1.3 19.1c-.4-1.1-.6-3.3-.7-4.6-1.9 2.3-6 5.7-12.1 5.7-7.4 0-13.1-4.4-13.1-12.2 0-11.3 11.6-15.4 23.1-15.4h1.5V397c0-3.6-1.5-5.8-6.9-5.8-5.6 0-9.4 2.9-11 4l-5.3-7.4c2.6-2.4 8.4-6.3 17.7-6.3 12 0 17.7 4.6 17.7 16.2v15.2c0 6 .6 10.2 1.2 13h-12.1zm32.9 1c-7.8 0-12.8-2.3-15.5-4.1l4.1-8.5c1.7 1.2 5.9 3.6 10.7 3.6 4.5 0 7-1.3 7-3.7 0-2.8-4.9-3.6-11.1-6.6-6-2.9-9.5-6.2-9.5-12.8 0-8.2 6.5-13.4 16.4-13.4 7.4 0 12 2.3 14 3.4l-4.2 8.3c-1.7-1-5.1-2.7-9.2-2.7s-5.9 1.4-5.9 3.7c0 2.8 4 3.5 9 5.5 6.8 2.8 11.7 6 11.7 13.2-.2 9.3-6.8 14.1-17.5 14.1zm50.3-28c-.1-4.8-2-8.7-7.2-8.7-4.8 0-7.6 3.1-8.4 8.7h15.6zm-4.6 19c5.9 0 9.1-1.9 11.3-3l3.9 7.8c-2.9 1.6-7.3 4.2-16.3 4.2-14.6 0-22.9-9.1-22.9-23 0-13.8 9.5-22.5 21.6-22.5 13.7 0 20.3 9.5 18.8 25.7h-27.3c.5 6.5 3.9 10.8 10.9 10.8z"/><path fill="#D7181B" d="M49.8 330.1c-36.5 0-66.2 29.6-66.2 66.2 0 36.5 29.6 66.2 66.2 66.2 36.5 0 66.2-29.6 66.2-66.2s-29.7-66.2-66.2-66.2zm44.7 77.8c0 4-2.3 7.5-6.8 8.3-7.8 1.4-24.2 2.2-37.9 2.2s-30.1-.8-37.9-2.2c-4.5-.8-6.8-4.3-6.8-8.3v-25.8c0-4 3.1-7.7 6.8-8.3 2.3-.4 7.7-.8 11.9-.8 1.6 0 2.9 1.2 2.9 3.1v18.1l23.2-.5 23.2.5v-18.1c0-1.9 1.3-3.1 2.9-3.1 4.2 0 9.6.4 11.9.8 3.8.6 6.8 4.3 6.8 8.3-.2 8.5-.2 17.2-.2 25.8z"/></svg>
