<svg xmlns="http://www.w3.org/2000/svg" width="1200" height="323.68" fill="none" xmlns:v="https://vecta.io/nano"><g clip-path="url(#A)" transform="matrix(7.356395 0 0 7.356395 -.003592 0)" fill="#27262b"><path d="M29.621 17.357c-1.087-1.044-2.739-1.564-4.961-1.564s-3.943.492-5.49 1.473a.41.41 0 0 0-.047.03c-1.851 1.192-.922 3.965 1.309 3.965h.036a.27.27 0 0 0 .242-.156c.229-.492.596-.886 1.099-1.181.553-.322 1.198-.483 1.941-.483.802 0 1.404.192 1.798.575s.529.904.394 1.55l-.257 1.248h-3.618c-2.284 0-4.125.449-5.527 1.35s-2.278 2.195-2.627 3.874c-.322 1.561-.068 2.794.772 3.705.834.913 2.134 1.368 3.888 1.368 1.566 0 2.895-.369 3.99-1.108.763-.517 1.324-1.16 1.68-1.931h.098l-.506 2.433c-.032.157.094.304.259.304h2.107c1.264 0 2.347-.854 2.593-2.037l1.907-9.204c.364-1.761.006-3.163-1.078-4.206zm-4.843 9.827c-.157.77-.589 1.393-1.29 1.867s-1.517.714-2.448.714c-.846 0-1.472-.197-1.877-.593s-.536-.936-.394-1.625a2.55 2.55 0 0 1 .992-1.564c.525-.394 1.145-.591 1.866-.591h3.521zm17.558 1.521H39.17c-.57 0-.997-.166-1.275-.501s-.364-.773-.249-1.321l3.303-15.949c.032-.156-.094-.301-.261-.301h-7.52c-.127 0-.234.086-.261.202l-.744 3.596c-.032.156.094.301.259.301h2.659c.167 0 .292.147.261.303l-2.454 11.848c-.244 1.174-.199 2.209.135 3.099a4.01 4.01 0 0 0 1.742 2.082c.827.496 1.856.745 3.082.745h3.748c.127 0 .234-.086.261-.204l.744-3.596c.032-.156-.094-.301-.259-.301zm19.24-12.607h-4.629c-.083 0-.161.038-.212.1l-4.876 6.217h-1.554l2.377-11.483c.032-.156-.094-.301-.259-.301h-4.22c-.126 0-.234.086-.259.202l-4.486 21.67c-.032.156.094.301.259.301h2.265c1.262 0 2.347-.852 2.593-2.033l.937-4.527h1.522l2.259 6.389c.036.102.137.172.249.172h4.828c.184 0 .311-.174.249-.337l-3.054-8.198 6.219-7.765c.133-.166.009-.406-.21-.406zm14.704 2.869c-.418-1.002-1.134-1.781-2.149-2.338s-2.306-.836-3.872-.836-2.943.279-4.201.836-2.302 1.335-3.133 2.338-1.386 2.171-1.663 3.508l-.817 3.949c-.278 1.335-.208 2.506.208 3.508s1.138 1.783 2.164 2.34 2.312.836 3.855.836 2.97-.279 4.216-.836 2.287-1.337 3.118-2.34a7.91 7.91 0 0 0 1.661-3.508l.817-3.949c.276-1.337.206-2.506-.208-3.508zm-4.548 3.51l-.817 3.949c-.18.87-.562 1.543-1.147 2.019s-1.342.714-2.272.714-1.564-.238-1.963-.714-.506-1.149-.326-2.019l.817-3.949c.186-.89.574-1.57 1.166-2.035s1.344-.698 2.255-.698 1.59.233 1.982.698.491 1.146.308 2.035zm22.091-.304a1.69 1.69 0 0 1-.613.981 1.84 1.84 0 0 1-1.129.383h-3.294c-.167 0-.291-.143-.259-.301l.159-.763c.187-.911.073-1.62-.338-2.125s-1.056-.759-1.92-.759c-.911 0-1.656.252-2.237.759s-.966 1.214-1.155 2.125l-1.716 8.293c-.246 1.183-1.333 2.037-2.593 2.037h-2.265c-.167 0-.291-.147-.259-.303l3.354-16.201c.024-.118.135-.202.259-.202h3.902c.167 0 .293.143.263.301l-.6 2.887h.051c.386-.868.898-1.577 1.534-2.125 1.055-.911 2.418-1.367 4.089-1.367 1.924 0 3.303.558 4.141 1.67s1.046 2.685.626 4.709zm69.267-.416c-.053.265-.158.526-.274.759-.178.36-.411.702-.694.995-.639.668-1.532 1.054-2.463 1.185-.816.113-1.646.038-2.462-.038l-2.531-.134c-1.691-.023-3.382.086-5.055.328-2.023.292-3.667.777-5.502 1.654l-.087.043a10.88 10.88 0 0 0-1.998 1.289c-2.415 1.983-3.583 4.899-4.541 7.722-.653 1.93-1.292 3.94-2.756 5.461-2.256 2.34-6.011 2.978-9.416 2.978H109.15c-.187 0-.328-.161-.29-.338l.35-1.724c.285-1.403 1.575-2.416 3.071-2.416h11.246c2.9 0 6.003-.387 7.61-2.506.901-1.19 1.162-2.665 1.529-4.071 1.29-4.914 4.502-9.75 9.654-11.687-1.519-.906-2.621-2.37-3.007-3.979-.705-2.973.963-5.964 1.119-9.002.068-1.294-.251-2.751-1.44-3.469-.832-.503-1.901-.519-2.902-.519l-12.074.009h-3.199c-1.964 0-3.44-1.709-3.063-3.55l.105-.523c.028-.132.148-.229.29-.229h19.325c2.555-.005 5.424.107 7.154 1.806.574.564.941 1.219 1.155 1.93a.64.64 0 0 1 .026.088c.497 1.74.105 3.791-.394 5.604-.643 2.357-1.333 5.098.047 7.352.548.895 1.406 1.557 2.426 1.908.57.197.814.295 1.42.29.303-.003.603-.03.903-.082.597-.098 1.241-.238 1.78-.338.256-.048.515-.091.776-.127.707-.095 1.462-.113 2.184.023.527.1 1.042.286 1.483.584.471.315.746.707.994 1.194.138.272.311.548.588.689.501.254 1.279.084 1.817.043.561-.043 1.117-.125 1.676-.188a11.76 11.76 0 0 1 .818-.068c.215-.009.45.018.609.168.116.109.171.267.184.422a1.73 1.73 0 0 1-.032.458zM17.097 10.629H4.672c-.126 0-.234.086-.259.204L.005 32.505c-.032.156.094.301.259.301h2.58c1.264 0 2.353-.857 2.595-2.042l1.247-6.12c.024-.118.133-.206.259-.206h4.608c1.267 0 2.355-.857 2.595-2.044l.285-1.403c.032-.154-.094-.301-.261-.301H7.805c-.165 0-.292-.145-.259-.301l1.189-5.808c.024-.118.133-.204.259-.204h5.484c1.267 0 2.355-.857 2.595-2.044l.285-1.403c.032-.156-.094-.301-.261-.301zm96.562 3.356c-.444-1.063-1.205-1.889-2.276-2.476s-2.413-.881-4.023-.881h-7.209a.37.37 0 0 0-.368.288l-4.442 21.46c-.045.222.131.428.368.428h7.061c1.607 0 3.071-.299 4.387-.895a9.15 9.15 0 0 0 3.313-2.506c.887-1.07 1.478-2.32 1.772-3.739l1.64-7.926c.299-1.439.225-2.692-.221-3.754zm-4.533 3.755l-1.644 7.926a3.39 3.39 0 0 1-1.32 2.096c-.699.526-1.541.793-2.513.793h-2.757l2.831-13.67h2.757c.972 0 1.703.263 2.185.789s.639 1.215.463 2.068zm21.182-5.577c-1.181-1.022-2.949-1.534-5.298-1.534h-7.143c-.178 0-.334.122-.368.288l-4.445 21.46c-.045.222.131.428.367.428h7.286c1.626 0 3.088-.263 4.38-.789s2.364-1.271 3.206-2.236 1.4-2.089 1.672-3.385c.233-1.133.165-2.085-.202-2.857a3.67 3.67 0 0 0-1.722-1.731c-.776-.383-1.683-.566-2.724-.548l.019-.088a6.41 6.41 0 0 0 2.713-.61 6.58 6.58 0 0 0 2.254-1.702c.628-.727 1.04-1.577 1.243-2.549.36-1.742-.055-3.127-1.236-4.149zm-5.084 13.993c-.195.931-.643 1.657-1.343 2.184s-1.573.793-2.604.793h-2.949l1.239-5.986h2.949c1.033 0 1.795.27 2.276.807s.625 1.271.433 2.202zm1.404-9.236c-.169.811-.566 1.453-1.194 1.928s-1.408.716-2.338.716h-2.788l1.085-5.255h2.792c.93 0 1.61.227 2.047.684s.566 1.099.394 1.928z"/></g><defs><clipPath id="A"><path fill="#fff" d="M0 0h165v44H0z"/></clipPath></defs></svg>
