<svg width="213" height="48" viewBox="0 0 213 48" fill="none" xmlns="http://www.w3.org/2000/svg">
<rect y="3.31934" width="44.6808" height="44.6808" fill="#625EFF" fill-opacity="0.2"/>
<rect x="3.32031" width="44.6808" height="44.6808" fill="#625EFF"/>
<path d="M20.2232 27.777C19.8894 27.4433 19.348 27.4433 19.0142 27.777L9.95345 36.8382C9.61968 37.1719 9.61968 37.7134 9.95345 38.0472C10.1201 38.2139 10.3392 38.2974 10.558 38.2974C10.7767 38.2974 10.9954 38.2139 11.1625 38.0472L20.2232 28.9842C20.557 28.6504 20.557 28.1097 20.2232 27.777Z" fill="white"/>
<path d="M12.6742 30.4952L18.6945 24.475C19.0282 24.1412 19.0282 23.5997 18.6945 23.266C18.3607 22.9322 17.8211 22.9322 17.4874 23.266L11.4671 29.2862C11.1334 29.62 11.1334 30.1614 11.4671 30.4952C11.6338 30.6619 11.8522 30.7454 12.0709 30.7454C12.2896 30.7454 12.5075 30.6619 12.6742 30.4952Z" fill="white"/>
<path d="M23.5245 29.307L17.5042 35.3291C17.1705 35.6617 17.1705 36.2032 17.5042 36.5362C17.6709 36.7029 17.8893 36.7864 18.108 36.7864C18.3267 36.7864 18.5443 36.7029 18.7113 36.5362L24.7335 30.516C25.0673 30.1822 25.0673 29.6407 24.7335 29.307C24.3997 28.9732 23.8579 28.9732 23.5245 29.307Z" fill="white"/>
<path d="M24.7824 10.3418L27.4694 20.3828C27.5149 20.5523 27.6041 20.7069 27.7282 20.831C27.8524 20.9552 28.007 21.0444 28.1765 21.0899L38.2175 23.7769C38.386 23.822 38.5635 23.8223 38.7322 23.7777C38.9009 23.733 39.055 23.645 39.1791 23.5223C39.3042 23.3982 39.3943 23.2432 39.4402 23.0731C39.4862 22.903 39.4864 22.7238 39.4407 22.5536L36.7467 12.5197C36.7012 12.3502 36.612 12.1956 36.4879 12.0714C36.3637 11.9473 36.2091 11.8581 36.0396 11.8126L26.0057 9.11854C25.8355 9.07294 25.6563 9.07311 25.4862 9.11906C25.316 9.165 25.1611 9.25508 25.037 9.38017C24.9143 9.50432 24.8263 9.6584 24.7816 9.82711C24.737 9.99581 24.7373 10.1733 24.7824 10.3418V10.3418ZM34.9365 13.6228L37.0578 21.401L29.2796 19.2797L27.1583 11.5015L34.9365 13.6228ZM35.8769 24.7032L26.4512 22.1081L23.8844 12.6541C23.8504 12.5266 23.7916 12.4071 23.7113 12.3025C23.631 12.1979 23.5307 12.1102 23.4164 12.0445C23.302 11.9787 23.1758 11.9363 23.0449 11.9196C22.9141 11.9028 22.7813 11.9121 22.654 11.947C22.3995 12.0171 22.183 12.1852 22.0519 12.4143C21.9207 12.6435 21.8855 12.9152 21.954 13.1703L24.641 23.2112C24.6864 23.3807 24.7757 23.5353 24.8998 23.6595C25.0239 23.7836 25.1786 23.8729 25.3481 23.9183L35.389 26.6053C35.644 26.6738 35.9158 26.6386 36.145 26.5074C36.3741 26.3763 36.5421 26.1598 36.6123 25.9053C36.6472 25.778 36.6565 25.6452 36.6397 25.5143C36.623 25.3835 36.5806 25.2573 36.5148 25.1429C36.4491 25.0286 36.3614 24.9283 36.2568 24.848C36.1522 24.7677 36.0327 24.7088 35.9052 24.6749L35.8769 24.7032ZM33.0485 27.5316L23.6228 24.9365L21.056 15.4825C21.022 15.355 20.9632 15.2356 20.8829 15.1309C20.8025 15.0263 20.7023 14.9386 20.588 14.8729C20.4736 14.8072 20.3474 14.7647 20.2165 14.748C20.0857 14.7313 19.9528 14.7406 19.8256 14.7754C19.5711 14.8456 19.3546 15.0136 19.2234 15.2428C19.0923 15.4719 19.0571 15.7437 19.1256 15.9987L21.8126 26.0396C21.858 26.2092 21.9473 26.3638 22.0714 26.4879C22.1955 26.612 22.3501 26.7013 22.5197 26.7467L32.5606 29.4337C32.8156 29.5022 33.0874 29.467 33.3165 29.3358C33.5457 29.2047 33.7137 28.9882 33.7839 28.7337C33.8187 28.6065 33.828 28.4736 33.8113 28.3428C33.7946 28.2119 33.7521 28.0857 33.6864 27.9713C33.6207 27.857 33.533 27.7568 33.4284 27.6764C33.3237 27.5961 33.2042 27.5373 33.0768 27.5033L33.0485 27.5316Z" fill="white"/>
<path d="M66.1503 36V11.2727H71.3783V31.6896H81.9791V36H66.1503ZM90.6331 36.3501C89.4498 36.3501 88.3954 36.1449 87.4697 35.7344C86.5441 35.3158 85.8116 34.7 85.2723 33.8871C84.741 33.0661 84.4754 32.0438 84.4754 30.8203C84.4754 29.79 84.6646 28.9247 85.0429 28.2244C85.4212 27.5241 85.9364 26.9607 86.5883 26.5341C87.2403 26.1075 87.9809 25.7855 88.8099 25.5682C89.6471 25.3509 90.5244 25.1979 91.442 25.1094C92.5206 24.9967 93.39 24.892 94.05 24.7955C94.71 24.6908 95.189 24.5379 95.4868 24.3366C95.7846 24.1354 95.9335 23.8376 95.9335 23.4432V23.3707C95.9335 22.6061 95.692 22.0144 95.2091 21.5959C94.7342 21.1773 94.058 20.968 93.1807 20.968C92.255 20.968 91.5185 21.1733 90.9712 21.5838C90.4238 21.9863 90.0616 22.4934 89.8845 23.1051L85.1274 22.7188C85.3689 21.5919 85.8438 20.6179 86.5521 19.7969C87.2605 18.9678 88.174 18.3319 89.2929 17.8892C90.4198 17.4384 91.7238 17.2131 93.2048 17.2131C94.2351 17.2131 95.2212 17.3338 96.1629 17.5753C97.1127 17.8168 97.9539 18.1911 98.6864 18.6982C99.4269 19.2053 100.01 19.8572 100.437 20.6541C100.864 21.4429 101.077 22.3887 101.077 23.4915V36H96.1991V33.4283H96.0542C95.7564 34.0078 95.358 34.5189 94.8589 34.9616C94.3599 35.3963 93.7602 35.7384 93.0599 35.9879C92.3596 36.2294 91.5507 36.3501 90.6331 36.3501ZM92.1061 32.8004C92.8627 32.8004 93.5308 32.6515 94.1104 32.3537C94.6899 32.0478 95.1447 31.6373 95.4747 31.1222C95.8047 30.607 95.9697 30.0234 95.9697 29.3714V27.4034C95.8087 27.508 95.5874 27.6046 95.3057 27.6932C95.032 27.7737 94.7221 27.8501 94.376 27.9226C94.0299 27.987 93.6837 28.0473 93.3376 28.1037C92.9915 28.152 92.6776 28.1963 92.3959 28.2365C91.7922 28.325 91.265 28.4659 90.8142 28.6591C90.3634 28.8523 90.0133 29.1139 89.7638 29.4439C89.5142 29.7659 89.3895 30.1683 89.3895 30.6513C89.3895 31.3516 89.643 31.8868 90.1501 32.2571C90.6653 32.6193 91.3173 32.8004 92.1061 32.8004ZM110.211 25.2784V36H105.067V17.4545H109.969V20.7266H110.187C110.597 19.648 111.285 18.7947 112.251 18.1669C113.217 17.531 114.388 17.2131 115.765 17.2131C117.053 17.2131 118.176 17.4948 119.133 18.0582C120.091 18.6217 120.836 19.4266 121.367 20.473C121.898 21.5114 122.164 22.7509 122.164 24.1918V36H117.021V25.1094C117.029 23.9744 116.739 23.089 116.151 22.4531C115.564 21.8092 114.755 21.4872 113.724 21.4872C113.032 21.4872 112.42 21.6361 111.889 21.9339C111.366 22.2318 110.955 22.6664 110.658 23.2379C110.368 23.8014 110.219 24.4815 110.211 25.2784ZM134.597 36.3622C132.697 36.3622 131.063 35.9598 129.695 35.1548C128.335 34.3419 127.288 33.215 126.556 31.7741C125.831 30.3333 125.469 28.6752 125.469 26.7997C125.469 24.9001 125.835 23.2339 126.568 21.8011C127.308 20.3603 128.359 19.2375 129.719 18.4325C131.08 17.6196 132.697 17.2131 134.573 17.2131C136.191 17.2131 137.607 17.5069 138.823 18.0945C140.038 18.6821 141 19.5071 141.709 20.5696C142.417 21.6321 142.807 22.8797 142.88 24.3125H138.026C137.889 23.3868 137.527 22.6423 136.939 22.0788C136.36 21.5073 135.599 21.2216 134.657 21.2216C133.861 21.2216 133.164 21.4389 132.569 21.8736C131.981 22.3002 131.522 22.924 131.192 23.745C130.862 24.5661 130.697 25.5601 130.697 26.7273C130.697 27.9105 130.858 28.9167 131.18 29.7457C131.51 30.5748 131.973 31.2067 132.569 31.6413C133.164 32.076 133.861 32.2933 134.657 32.2933C135.245 32.2933 135.772 32.1726 136.239 31.9311C136.714 31.6896 137.104 31.3395 137.41 30.8807C137.724 30.4138 137.929 29.8544 138.026 29.2024H142.88C142.799 30.6191 142.413 31.8667 141.721 32.9453C141.036 34.0159 140.091 34.853 138.883 35.4567C137.676 36.0604 136.247 36.3622 134.597 36.3622ZM154.625 36.3622C152.717 36.3622 151.075 35.9759 149.698 35.2031C148.33 34.4223 147.276 33.3196 146.535 31.8949C145.795 30.4621 145.424 28.7678 145.424 26.8118C145.424 24.9041 145.795 23.2299 146.535 21.7891C147.276 20.3482 148.318 19.2254 149.662 18.4205C151.014 17.6155 152.6 17.2131 154.419 17.2131C155.643 17.2131 156.782 17.4103 157.836 17.8047C158.899 18.1911 159.824 18.7746 160.613 19.5554C161.41 20.3362 162.03 21.3182 162.473 22.5014C162.915 23.6766 163.137 25.053 163.137 26.6307V28.0433H147.477V24.8558H158.295C158.295 24.1153 158.134 23.4593 157.812 22.8878C157.49 22.3163 157.043 21.8696 156.472 21.5476C155.908 21.2176 155.252 21.0526 154.504 21.0526C153.723 21.0526 153.031 21.2337 152.427 21.5959C151.831 21.95 151.365 22.429 151.027 23.0327C150.688 23.6283 150.515 24.2924 150.507 25.0249V28.0554C150.507 28.973 150.676 29.7659 151.014 30.4339C151.361 31.102 151.848 31.6172 152.475 31.9794C153.103 32.3416 153.848 32.5227 154.709 32.5227C155.281 32.5227 155.804 32.4422 156.279 32.2812C156.754 32.1203 157.16 31.8788 157.498 31.5568C157.836 31.2348 158.094 30.8404 158.271 30.3736L163.028 30.6875C162.786 31.8305 162.291 32.8286 161.543 33.6818C160.802 34.527 159.844 35.187 158.669 35.6619C157.502 36.1288 156.154 36.3622 154.625 36.3622ZM175.355 36H166.59V11.2727H175.428C177.915 11.2727 180.056 11.7678 181.851 12.7578C183.646 13.7398 185.027 15.1525 185.992 16.9957C186.966 18.839 187.453 21.0445 187.453 23.6122C187.453 26.188 186.966 28.4015 185.992 30.2528C185.027 32.1042 183.638 33.5249 181.827 34.5149C180.024 35.505 177.867 36 175.355 36ZM171.818 31.5206H175.138C176.684 31.5206 177.983 31.2469 179.038 30.6996C180.1 30.1442 180.897 29.2869 181.429 28.1278C181.968 26.9607 182.237 25.4555 182.237 23.6122C182.237 21.785 181.968 20.2919 181.429 19.1328C180.897 17.9737 180.104 17.1205 179.05 16.5732C177.996 16.0258 176.696 15.7521 175.15 15.7521H171.818V31.5206ZM191.326 36V11.2727H201.227C203.046 11.2727 204.563 11.5424 205.779 12.0817C206.994 12.621 207.908 13.3696 208.519 14.3274C209.131 15.2772 209.437 16.3719 209.437 17.6115C209.437 18.5774 209.244 19.4266 208.857 20.1591C208.471 20.8835 207.94 21.4792 207.264 21.946C206.596 22.4048 205.831 22.7308 204.97 22.924V23.1655C205.911 23.2057 206.793 23.4714 207.614 23.9624C208.443 24.4534 209.115 25.1416 209.63 26.027C210.145 26.9044 210.403 27.9508 210.403 29.1662C210.403 30.4782 210.077 31.6494 209.425 32.6797C208.781 33.7019 207.827 34.5109 206.563 35.1065C205.3 35.7022 203.742 36 201.891 36H191.326ZM196.554 31.7259H200.816C202.273 31.7259 203.336 31.4482 204.004 30.8928C204.672 30.3293 205.006 29.5807 205.006 28.647C205.006 27.9628 204.841 27.3591 204.511 26.8359C204.181 26.3127 203.71 25.9022 203.098 25.6044C202.494 25.3066 201.774 25.1577 200.937 25.1577H196.554V31.7259ZM196.554 21.62H200.43C201.146 21.62 201.782 21.4953 202.337 21.2457C202.901 20.9882 203.344 20.6259 203.666 20.1591C203.996 19.6922 204.161 19.1328 204.161 18.4808C204.161 17.5874 203.843 16.867 203.207 16.3196C202.579 15.7723 201.685 15.4986 200.526 15.4986H196.554V21.62Z" fill="#333333"/>
</svg>
