<?xml version="1.0" encoding="UTF-8"?>
<!-- Generator: Adobe Illustrator 18.1.0, SVG Export Plug-In . SVG Version: 6.00 Build 0)  -->
<svg version="1.1" xmlns="http://www.w3.org/2000/svg" xmlns:xlink="http://www.w3.org/1999/xlink" x="0px" y="0px" viewBox="0 0 1500 600" enable-background="new 0 0 1500 600" xml:space="preserve">
<g id="Neo4j">
	<g>
		<path fill="#008CC1" d="M458.8,278.8c0,114-92.4,206.4-206.4,206.4c-114,0-206.4-92.4-206.4-206.4c0-114,92.4-206.4,206.4-206.4    C366.4,72.3,458.8,164.8,458.8,278.8"/>
		<path fill="#FFFFFF" d="M137.5,211.1c0,9.1-7.4,16.5-16.5,16.5c-9.1,0-16.5-7.4-16.5-16.5c0-9.1,7.4-16.5,16.5-16.5    C130.2,194.6,137.5,202,137.5,211.1"/>
		<path fill="#FFFFFF" d="M140.3,256.4c0,9.1-7.4,16.5-16.5,16.5c-9.1,0-16.5-7.4-16.5-16.5c0-9.1,7.4-16.5,16.5-16.5    C132.9,239.9,140.3,247.2,140.3,256.4"/>
		<path fill="#FFFFFF" d="M150.4,304.4c0,9.1-7.4,16.5-16.5,16.5c-9.1,0-16.5-7.4-16.5-16.5c0-9.1,7.4-16.5,16.5-16.5    C143,287.8,150.4,295.2,150.4,304.4"/>
		<path fill="#FFFFFF" d="M173,347.4c0,9.1-7.4,16.5-16.5,16.5c-9.1,0-16.5-7.4-16.5-16.5c0-9.1,7.4-16.5,16.5-16.5    C165.6,330.8,173,338.2,173,347.4"/>
		<path fill="#FFFFFF" d="M349.7,407.5c0,9.1-7.4,16.5-16.5,16.5c-9.1,0-16.5-7.4-16.5-16.5c0-9.1,7.4-16.5,16.5-16.5    C342.3,391,349.7,398.4,349.7,407.5"/>
		<path fill="#FFFFFF" d="M379.7,372c0,9.1-7.4,16.5-16.5,16.5c-9.1,0-16.5-7.4-16.5-16.5c0-9.1,7.4-16.5,16.5-16.5    C372.3,355.5,379.7,362.9,379.7,372"/>
		<path fill="#FFFFFF" d="M292.7,121c0,9.1-7.4,16.5-16.5,16.5c-9.1,0-16.5-7.4-16.5-16.5c0-9.1,7.4-16.5,16.5-16.5    C285.3,104.5,292.7,111.9,292.7,121"/>
		<path fill="#FFFFFF" d="M249.3,105.8c0,9.1-7.4,16.5-16.5,16.5c-9.1,0-16.5-7.4-16.5-16.5c0-9.1,7.4-16.5,16.5-16.5    C241.9,89.3,249.3,96.7,249.3,105.8"/>
		<circle fill="#66B245" stroke="#FFFFFF" stroke-width="3.5" stroke-miterlimit="10" cx="366.3" cy="229.6" r="110"/>
		<circle fill="#66B245" stroke="#FFFFFF" stroke-width="3.5" stroke-miterlimit="10" cx="215.6" cy="453.9" r="90"/>
		<circle fill="#66B245" stroke="#FFFFFF" stroke-width="3.5" stroke-miterlimit="10" cx="141.5" cy="119" r="60"/>
	</g>
	<g>
		<path fill="#101010" d="M527,157.8h20v38.8c9.6-23.6,29.6-42,70.4-42c46.4,0,77.6,31.2,77.6,80.4v124.4h-20V239    c0-40.4-24.8-65.6-62-65.6c-40.4,0-66,31.2-66,77.6v108.4h-20V157.8z"/>
		<path fill="#101010" d="M730.6,259c0-62.8,42.8-106,98.4-106c54.8,0,93.6,45.2,93.6,100.4c0,0,0,6-0.4,10h-172    c1.2,48.4,33.6,82.8,79.6,82.8c37.6,0,63.6-16,75.6-31.2v23.6c-18.8,16.8-41.6,26.4-75.6,26.4c-58,0-99.2-42.4-99.2-104.8V259z     M901.4,245.4c-0.4-41.2-32.4-73.6-72.4-73.6c-42,0-76.4,32.4-78,73.6H901.4z"/>
		<path fill="#101010" d="M1059.8,152.6c59.2,0,106,45.2,106,106c0,60.8-46.8,106-106,106c-59.2,0-106-45.2-106-106    C953.8,197.8,1000.6,152.6,1059.8,152.6z M1059.8,345.8c49.2,0,86-37.6,86-87.2s-36.8-87.2-86-87.2s-86,37.6-86,87.2    S1010.6,345.8,1059.8,345.8z"/>
		<path fill="#101010" d="M1271.4,157.8h22.4l-85.6,182.4h124.4v-66h20.8v162.4h-20.8v-77.2h-156L1271.4,157.8z"/>
		<path fill="#101010" d="M1421.8,157.8h20v229.6c0,45.2-26,54.4-51.2,54.4c-4.8,0-10-0.4-13.2-1.2v-18.8c4.8,0.8,10.4,1.2,15.2,1.2    c20.4,0,29.2-10,29.2-35.6V157.8z M1417.4,103.8c0-8.4,6.8-14.4,14.4-14.4s14.4,6,14.4,14.4c0,8-6.8,14-14.4,14    S1417.4,111.8,1417.4,103.8z"/>
	</g>
</g>
<g id="Layer_2">
</g>
</svg>
