<?xml version="1.0" encoding="UTF-8" standalone="no"?>
<!-- Created with Inkscape (http://www.inkscape.org/) -->

<svg
   xmlns:dc="http://purl.org/dc/elements/1.1/"
   xmlns:cc="http://creativecommons.org/ns#"
   xmlns:rdf="http://www.w3.org/1999/02/22-rdf-syntax-ns#"
   xmlns:svg="http://www.w3.org/2000/svg"
   xmlns="http://www.w3.org/2000/svg"
   xmlns:sodipodi="http://sodipodi.sourceforge.net/DTD/sodipodi-0.dtd"
   xmlns:inkscape="http://www.inkscape.org/namespaces/inkscape"
   id="svg3039"
   version="1.1"
   inkscape:version="0.91 r13725"
   width="772.09882"
   height="129.37642"
   xml:space="preserve"
   sodipodi:docname="postgres-horizontal.svg"
   inkscape:export-filename="/home/pavlo/Dropbox/Images/Logos/postgres-horizontal-white.png"
   inkscape:export-xdpi="139.88"
   inkscape:export-ydpi="139.88"><metadata
     id="metadata3045"><rdf:RDF><cc:Work
         rdf:about=""><dc:format>image/svg+xml</dc:format><dc:type
           rdf:resource="http://purl.org/dc/dcmitype/StillImage" /><dc:title></dc:title></cc:Work></rdf:RDF></metadata><defs
     id="defs3043"><clipPath
       clipPathUnits="userSpaceOnUse"
       id="clipPath3053"><path
         d="M 0,408 503,408 503,0 0,0 0,408 Z"
         id="path3055"
         inkscape:connector-curvature="0" /></clipPath></defs><sodipodi:namedview
     pagecolor="#ffffff"
     bordercolor="#666666"
     borderopacity="1"
     objecttolerance="10"
     gridtolerance="10"
     guidetolerance="10"
     inkscape:pageopacity="0"
     inkscape:pageshadow="2"
     inkscape:window-width="1016"
     inkscape:window-height="831"
     id="namedview3041"
     showgrid="false"
     inkscape:zoom="0.65442039"
     inkscape:cx="452.2679"
     inkscape:cy="-58.929104"
     inkscape:window-x="224"
     inkscape:window-y="207"
     inkscape:window-maximized="0"
     inkscape:current-layer="g3047"
     fit-margin-top="0"
     fit-margin-left="0"
     fit-margin-right="0"
     fit-margin-bottom="0" /><g
     id="g3047"
     inkscape:groupmode="layer"
     inkscape:label="Postgre_SQL"
     transform="matrix(1.25,0,0,-1.25,145.2116,517.25071)"><g
       id="g3093"
       transform="translate(321.1001,396.4902)"
       inkscape:export-filename="/home/pavlo/Dropbox/Images/Logos/postgres.png"
       inkscape:export-xdpi="115.1584"
       inkscape:export-ydpi="115.1584"><path
         d="m 0,0 c 6.18,3.42 13.5,3.65 20.4,3.77 7.46,-0.09 15.64,-0.7 21.74,-5.5 3.82,-2.95 5.44,-7.83 5.45,-12.52 -2.37,-0.01 -4.73,0 -7.09,0 C 39.64,-9.65 37.62,-4.7 32.83,-3 24.82,0.04 15.62,-0.15 7.46,-2.53 0.92,-4.34 -1.47,-13.8 3.57,-18.37 c 3.61,-2.88 8.42,-3.27 12.77,-4.24 8.92,-1.9 18.38,-2.21 26.69,-6.28 8.86,-4.44 8.52,-18.61 0.71,-23.93 -6.48,-4.45 -14.72,-4.94 -22.34,-5 -8.3,0.13 -17.35,0.91 -24.1,6.27 -4.32,3.42 -5.66,9.11 -5.91,14.36 2.42,0.12 4.84,0.16 7.27,0.17 0.53,-5.58 3.15,-11.38 8.71,-13.5 8.7,-3.38 18.76,-3.34 27.64,-0.65 6.21,1.75 8.62,9.66 5.8,15.08 -1.34,2.45 -3.97,3.78 -6.55,4.49 -10.85,2.93 -22.34,3.09 -32.94,7 C -8.68,-20.93 -9.01,-4.99 0,0"
         style="fill:#326690;fill-opacity:1;fill-rule:nonzero;stroke:none"
         id="path3095"
         inkscape:connector-curvature="0" /></g><g
       id="g3097"
       transform="translate(399.8799,394.5098)"
       inkscape:export-filename="/home/pavlo/Dropbox/Images/Logos/postgres.png"
       inkscape:export-xdpi="115.1584"
       inkscape:export-ydpi="115.1584"><path
         d="m 0,0 c -8.09,-1.88 -15.63,-7.52 -18.25,-15.62 -2.77,-8.72 -1.81,-19.23 4.51,-26.23 5.56,-6.3 14.12,-9.14 22.35,-9.27 9.1,-0.3 19.06,2.31 25.05,9.58 8.18,10.52 7.24,28.05 -3.71,36.35 C 21.68,1.54 10.04,2.15 0,0 m -11.31,1.35 c 8.28,4.22 17.87,4.88 26.99,4.13 8.66,-0.72 17.48,-3.92 23.34,-10.56 7.27,-7.83 8.57,-19.67 5.84,-29.66 -1.48,-5.6 -5.41,-10.02 -9.63,-13.78 3.33,-2.42 6.79,-4.65 10.12,-7.09 -1.49,-1.44 -3.02,-2.83 -4.59,-4.18 -3.52,2.26 -6.75,4.96 -10.39,7.01 -2.81,0 -5.38,-1.7 -8.18,-2.09 -7.8,-1.38 -15.91,-1.48 -23.7,0.05 -8.49,1.7 -16.65,6.46 -21.23,13.96 -4.53,7.33 -5.12,16.58 -3.04,24.79 1.92,7.6 7.53,13.94 14.47,17.42"
         style="fill:#326690;fill-opacity:1;fill-rule:nonzero;stroke:none"
         id="path3099"
         inkscape:connector-curvature="0" /></g><g
       id="g3101"
       transform="translate(450.8398,398.7598)"
       inkscape:export-filename="/home/pavlo/Dropbox/Images/Logos/postgres.png"
       inkscape:export-xdpi="115.1584"
       inkscape:export-ydpi="115.1584"><path
         d="m 0,0 c 2.3,0.05 4.6,0.11 6.91,0.18 0.19,-17.94 0.04,-35.88 0.07,-53.82 14.56,-0.25 29.13,0.11 43.69,-0.18 -0.01,-1.59 -0.02,-3.19 -0.03,-4.79 -16.88,-0.01 -33.77,-0.07 -50.66,0.04 C 0.01,-39.05 -0.03,-19.52 0,0"
         style="fill:#326690;fill-opacity:1;fill-rule:nonzero;stroke:none"
         id="path3103"
         inkscape:connector-curvature="0" /></g><g
       id="g3133"
       transform="translate(7.4299,394.0698)"
       inkscape:export-filename="/home/pavlo/Dropbox/Images/Logos/postgres.png"
       inkscape:export-xdpi="115.1584"
       inkscape:export-ydpi="115.1584"><path
         d="m 0,0 c -0.01,-8.14 -0.04,-16.28 0.02,-24.42 8.69,0.02 17.38,-0.13 26.07,0.07 4.85,0.15 10.53,1.82 12.56,6.7 1.6,4.37 1.35,9.8 -1.61,13.55 -2.88,3.45 -7.7,4.09 -11.93,4.11 C 16.74,0.02 8.37,0.02 0,0 m -5.9,4.69 c 11,-0.04 22,0.09 33.01,0.16 5.1,0.06 10.59,-0.88 14.53,-4.37 5.34,-4.62 6.27,-12.76 3.98,-19.14 -2.71,-6.9 -10.48,-10.13 -17.46,-10.3 -9.41,-0.12 -18.83,0.05 -28.24,-0.07 -0.1,-8.31 0.14,-16.61 0.05,-24.92 -1.96,0.01 -3.92,0.01 -5.87,0 -0.06,19.55 -0.07,39.09 0,58.64"
         style="fill:#000000;fill-opacity:1;fill-rule:nonzero;stroke:none"
         id="path3135"
         inkscape:connector-curvature="0" /></g><g
       id="g3137"
       transform="translate(158.29,391.23)"
       inkscape:export-filename="/home/pavlo/Dropbox/Images/Logos/postgres.png"
       inkscape:export-xdpi="115.1584"
       inkscape:export-ydpi="115.1584"><path
         d="m 0,0 6.04,0 c 0,-4.19 -0.01,-8.37 0.03,-12.56 3.43,-0.04 6.86,-0.04 10.29,0 0.05,-1.36 0.1,-2.71 0.16,-4.07 -3.47,-0.07 -6.94,-0.07 -10.41,0.01 -0.14,-8.23 -0.03,-16.45 -0.08,-24.67 0.06,-1.87 -0.12,-4.35 1.79,-5.42 2.67,-1.34 5.76,-0.85 8.62,-0.69 0,-1.3 0.01,-2.61 0.02,-3.92 -4.41,-0.5 -9.16,-0.83 -13.25,1.2 -2.47,1.29 -3.29,4.24 -3.24,6.84 -0.05,8.9 0.02,17.79 -0.02,26.69 -2.59,-0.01 -5.17,0 -7.76,0.03 0.02,1.33 0.03,2.66 0.05,3.98 2.56,-0.03 5.11,-0.01 7.67,0.1 C -0.06,-8.32 -0.05,-4.16 0,0"
         style="fill:#000000;fill-opacity:1;fill-rule:nonzero;stroke:none"
         id="path3139"
         inkscape:connector-curvature="0" /></g><g
       id="g3141"
       transform="translate(72.8901,375.4302)"
       inkscape:export-filename="/home/pavlo/Dropbox/Images/Logos/postgres.png"
       inkscape:export-xdpi="115.1584"
       inkscape:export-ydpi="115.1584"><path
         d="m 0,0 c -5.65,-0.66 -11.21,-4.22 -13.06,-9.79 -2.07,-6.19 -1.19,-13.91 3.84,-18.48 3.98,-3.65 9.67,-4.5 14.87,-4.25 4.72,0.19 9.73,1.44 13.1,4.97 3.69,3.62 4.3,9.19 3.82,14.09 -0.37,4.24 -2.41,8.54 -6.15,10.8 C 11.55,0.31 5.54,0.64 0,0 m -2.95,3.9 c 7.65,1.13 16.01,0.87 22.89,-3.02 10.34,-5.82 11.79,-21.44 4.59,-30.24 -6.18,-6.86 -16.3,-7.79 -24.97,-7.06 -7.04,0.43 -14.25,3.92 -17.58,10.38 -3.02,5.97 -3.06,13.4 -0.24,19.45 2.84,5.89 9.03,9.44 15.31,10.49"
         style="fill:#000000;fill-opacity:1;fill-rule:nonzero;stroke:none"
         id="path3143"
         inkscape:connector-curvature="0" /></g><g
       id="g3145"
       transform="translate(110,376.5098)"
       inkscape:export-filename="/home/pavlo/Dropbox/Images/Logos/postgres.png"
       inkscape:export-xdpi="115.1584"
       inkscape:export-ydpi="115.1584"><path
         d="m 0,0 c 3.98,2.54 8.88,2.94 13.48,3.26 6.49,0.15 13.59,0.19 19.21,-3.54 3.13,-1.96 4.26,-5.67 4.7,-9.13 -2.11,-0.08 -4.23,-0.1 -6.34,-0.1 -0.44,2.87 -1.61,5.91 -4.49,7.11 -5.18,2.38 -11.17,2.12 -16.69,1.33 -3.43,-0.49 -7.62,-2.44 -7.72,-6.43 -0.3,-2.83 2.29,-4.82 4.76,-5.43 7.28,-1.83 14.89,-1.65 22.22,-3.22 3.27,-0.77 6.8,-2.08 8.66,-5.07 2.54,-4.34 0.96,-10.57 -3.44,-13.08 -5.34,-3.16 -11.8,-3.32 -17.84,-3.35 -5.88,0.23 -12.28,0.33 -17.3,3.83 -3.08,2.13 -4.14,5.94 -4.72,9.44 2.19,0.03 4.38,0 6.57,-0.04 0.11,-4.77 4.12,-8.15 8.62,-8.72 6.54,-0.94 13.77,-1.48 19.86,1.56 4.22,2.12 3.81,8.95 -0.65,10.53 -9.05,2.64 -18.91,1.77 -27.83,5.01 C -5.37,-13.48 -5.47,-3.61 0,0"
         style="fill:#000000;fill-opacity:1;fill-rule:nonzero;stroke:none"
         id="path3147"
         inkscape:connector-curvature="0" /></g><g
       id="g3149"
       transform="translate(197.9302,375.2598)"
       inkscape:export-filename="/home/pavlo/Dropbox/Images/Logos/postgres.png"
       inkscape:export-xdpi="115.1584"
       inkscape:export-ydpi="115.1584"><path
         d="m 0,0 c -4.35,-0.68 -8.71,-2.8 -11.13,-6.61 -2.81,-4.53 -2.85,-10.45 -0.96,-15.34 2.01,-5.07 7.48,-7.66 12.63,-8.19 6.54,-0.94 14.17,-0.09 18.84,5.07 5.23,6.36 4.66,17.4 -2.34,22.3 C 12.1,0.58 5.73,0.78 0,0 m -5.06,3.57 c 6.23,1.39 12.9,1.49 19.05,-0.37 3.51,-0.95 5.96,-3.75 8.61,-6.03 0.12,2.05 0.17,4.1 0.28,6.14 1.93,-0.01 3.86,0.01 5.8,0.05 0.52,-11.85 0.07,-23.74 0.23,-35.61 0.15,-4.91 -0.81,-10.31 -4.64,-13.74 -5.03,-4.56 -12.2,-5.3 -18.69,-5.43 -5.77,0.12 -11.85,0.25 -17.07,2.99 -3.65,1.89 -5.4,5.89 -6.12,9.73 1.97,0.04 3.94,0.06 5.92,0.12 1.25,-2.55 2.21,-5.64 4.96,-6.98 4.12,-1.98 8.84,-2.04 13.32,-2.01 4.99,0.17 10.71,1.13 13.85,5.46 3.03,4.14 2.34,9.55 2.34,14.36 -6.25,-6.33 -15.7,-7.51 -24.15,-6.49 -5.3,0.61 -10.84,2.5 -14.3,6.77 -4.2,5.19 -4.72,12.52 -3.16,18.8 1.63,6.41 7.53,10.83 13.77,12.24"
         style="fill:#000000;fill-opacity:1;fill-rule:nonzero;stroke:none"
         id="path3151"
         inkscape:connector-curvature="0" /></g><g
       id="g3153"
       transform="translate(245.2202,378.2402)"
       inkscape:export-filename="/home/pavlo/Dropbox/Images/Logos/postgres.png"
       inkscape:export-xdpi="115.1584"
       inkscape:export-ydpi="115.1584"><path
         d="m 0,0 c 4.38,1.92 9.28,1.56 13.95,1.55 0,-1.63 0.01,-3.26 0.03,-4.89 -4.8,0.07 -10.15,0.71 -14.28,-2.29 -4.03,-2.76 -5.42,-7.9 -5.49,-12.55 -0.07,-6.64 0.04,-13.29 -0.03,-19.94 -1.98,0.01 -3.96,0.02 -5.93,0.02 -0.19,12.81 -0.22,25.62 -0.05,38.43 1.98,-0.01 3.97,-0.01 5.95,0.02 0.04,-2.21 0.05,-4.43 0.11,-6.64 C -4.27,-3.86 -2.72,-1.2 0,0"
         style="fill:#000000;fill-opacity:1;fill-rule:nonzero;stroke:none"
         id="path3155"
         inkscape:connector-curvature="0" /></g><g
       id="g3157"
       transform="translate(272.0801,373.4199)"
       inkscape:export-filename="/home/pavlo/Dropbox/Images/Logos/postgres.png"
       inkscape:export-xdpi="115.1584"
       inkscape:export-ydpi="115.1584"
       style="fill:#000000"><path
         d="m 0,0 c -4.35,-2.25 -6.39,-7.03 -7.43,-11.57 12.17,-0.09 24.35,-0.08 36.53,0 -0.41,2.77 -1.22,5.58 -3.14,7.7 C 19.81,3.58 8.17,4.36 0,0 m -10.83,-3.15 c 4.03,6.5 11.91,9.27 19.24,9.5 7.5,0.37 15.96,-0.65 21.44,-6.33 4.06,-3.94 5.39,-9.72 5.61,-15.19 -14.32,-0.13 -28.64,0.1 -42.95,-0.12 0.33,-3.87 1.5,-7.88 4.51,-10.54 5.56,-5.11 13.95,-5.57 21,-3.99 4.68,1.01 8.28,4.65 10,9.01 2.18,0.01 4.36,0 6.55,-0.02 -1.87,-6.5 -7.6,-11.21 -14.08,-12.67 -8.78,-2.04 -18.9,-1.69 -26.47,3.7 -8.27,5.81 -9.83,18.24 -4.85,26.65"
         style="fill:#000000;fill-opacity:1;fill-rule:nonzero;stroke:none"
         id="path3159"
         inkscape:connector-curvature="0" /></g><g
       id="g4179"
       transform="matrix(0.40920058,0,0,0.40920058,-155.23851,292.90297)"><g
         id="g4227"><g
           id="g3081"
           transform="matrix(0.89233393,0,0,0.89233393,194.91262,126.86116)"
           inkscape:export-filename="/home/pavlo/Dropbox/Images/Logos/postgres.png"
           inkscape:export-xdpi="115.1584"
           inkscape:export-ydpi="115.1584"><path
             d="m 0,0 c -6.09,-3.6 -13.48,-3.37 -19.8,-6.3 12.81,-6.53 30.54,-4.24 39.4,7.76 4.54,4.22 0.15,13.14 -5.85,12.29 C 8.24,10.16 5.9,3.17 0,0 m 103.43,12.58 c -2.63,-2.44 -2.45,-6.33 -2.48,-9.62 5.81,-1.99 12.06,-1.78 18.08,-1.06 9.09,0.98 18.34,4.02 25.01,10.51 -10.92,-1.32 -22.86,-3.96 -33.13,1.45 -2.42,1.68 -5.39,0.26 -7.48,-1.28 M -23.72,97.34 c 0.17,-8.61 0.78,-17.23 0.19,-25.84 -0.26,-7.61 -2.49,-15.25 -0.78,-22.84 2.5,-13.43 14.5,-25.35 28.61,-25.21 2.07,6.77 4.47,13.45 7.43,19.89 8.48,16.7 7.11,36.32 2.68,53.96 -1.21,4.97 -5.87,8.54 -10.92,8.76 -9.75,0.56 -19.16,-3.52 -27.21,-8.72 m 108.84,6.61 c -5.06,-3.96 -4.8,-11.17 -3.77,-16.87 3.64,-17.91 14.09,-33.26 22.17,-49.34 6.03,12.12 2.32,25.86 1.39,38.64 -1.03,10.33 2.13,20.39 2.45,30.65 -7.42,0.46 -15.82,1.48 -22.24,-3.08 m -146.65,64.57 c -10.9,-2.04 -21.28,-8.28 -26.84,-18.07 -7.43,-12.93 -8.24,-28.5 -6.94,-43.02 2.61,-19.08 7.15,-37.85 12.53,-56.32 4.8,-15.61 10.05,-31.33 18.75,-45.25 3.22,-4.74 6.9,-10.02 12.68,-11.69 4.94,-1.02 8.86,3.05 11.76,6.47 6.57,8.11 13.76,15.67 20.54,23.6 -9.96,9.05 -15.34,22.84 -13.53,36.25 1.44,10.27 1.71,20.67 1.08,31.02 -1.09,14.69 1,29.57 5.57,43.55 3.36,10.47 9.11,20.03 16.5,28.15 -16.75,5.11 -34.65,8.67 -52.1,5.31 M 22,169.84 c -11.88,-1.55 -23.01,-7.97 -30.18,-17.59 -9.76,-12.93 -14.02,-29.23 -15.26,-45.16 9.81,4.58 20.86,8.87 31.82,6.11 7.12,-1.71 12.47,-7.93 14.03,-14.96 3.2,-14.09 4.93,-28.94 1.8,-43.21 C 21.8,43.5 14.77,33.53 12.44,21.98 c 2.97,-0.24 6.07,-0.44 8.72,-1.93 5.47,-2.98 8.62,-9.37 8.28,-15.51 -0.41,-15.72 -0.39,-31.45 0.44,-47.15 0.49,-6.5 0.67,-13.1 2.39,-19.42 2.35,-7.54 7.58,-15.27 15.88,-16.73 8.74,-1.34 17.77,1.14 25.54,5.09 7.59,4 11,12.54 12.3,20.57 2.75,16.76 4.65,33.65 6.58,50.52 0.83,6.02 -0.35,12.63 3.01,18.05 1.92,3.48 5.69,5.11 9.07,6.82 -2.83,3.63 -5.82,7.16 -8.04,11.21 -8.36,17.26 -19.68,33.58 -23.17,52.78 -1.5,8.08 -0.64,17.69 6.04,23.32 7.36,6.33 17.69,5.96 26.8,5.64 -5.48,15.49 -15.65,29.27 -28.52,39.44 C 62.19,166.94 41.6,172.33 22,169.84 m 44.26,1.5 c 3.64,-2.52 7.73,-4.27 11.38,-6.78 14.98,-10.03 26.66,-24.64 34,-41.05 2.03,-4.74 4.12,-9.73 3.7,-15.01 0.09,-10.78 -3.6,-21.29 -2.5,-32.1 1.05,-11.45 3.52,-23.16 0.6,-34.54 -0.82,-4.03 -2.93,-7.61 -4.38,-11.41 0.11,-0.55 0.32,-1.65 0.43,-2.19 1.38,1.78 2.63,3.66 3.78,5.6 11.64,19.72 20.9,40.9 27,63 3.19,11.94 5.69,24.21 5.54,36.62 -0.22,5.21 -0.65,10.9 -4.03,15.14 -7.09,8.88 -16.53,15.89 -27.16,19.92 -15.35,5.78 -32.43,6.22 -48.36,2.8 m -13.75,4.8 c 18.61,5.75 38.91,7.28 57.83,2.15 15.15,-4.07 28.89,-13.18 38.37,-25.68 3.83,-5.19 4.7,-11.86 4.98,-18.13 0.36,-11.2 -1.58,-22.32 -4.1,-33.2 -6.92,-28.62 -19.3,-55.74 -35.04,-80.57 8.82,-3.78 18.71,-1.89 27.81,-0.27 3.79,0.75 8.68,1.66 11.55,-1.66 2.79,-3.62 0.11,-8.23 -2.72,-10.89 -13.23,-12.93 -33.26,-16.32 -50.97,-13.33 -1.79,-15.82 -3.67,-31.65 -6.14,-47.39 -1.37,-8.79 -4.3,-17.95 -11.18,-24.01 -6.47,-5.66 -14.99,-8.15 -23.27,-9.72 -8.44,-1.47 -17.92,-0.26 -24.57,5.54 -7.05,6.24 -11.06,15.48 -11.95,24.76 -1.79,15.84 -1.87,31.81 -1.82,47.74 -7.61,-6.56 -17.73,-9.93 -27.75,-9.17 -7.07,0.59 -14.9,1.7 -20.21,6.86 -2.94,2.69 -2.78,7.79 0.49,10.13 5.67,4.28 13.21,3.95 19.64,6.43 4.77,1.4 7.24,6.04 10.24,9.6 -5.54,0.41 -10.96,1.82 -15.95,4.27 -7.64,-8.14 -15.01,-16.55 -22.17,-25.13 -4.14,-4.96 -10.25,-9.15 -17.01,-8.33 -7.6,0.93 -13.25,6.89 -17.5,12.8 -8.37,12.03 -13.54,25.91 -18.25,39.69 -7.14,22.1 -12.75,44.76 -16,67.78 -1.61,17.34 -0.24,36.23 9.86,51.02 7.99,11.86 21.97,18.32 35.89,19.77 18.72,1.96 37.63,-1.86 55.21,-8.19 14.65,9.78 33.28,11.13 50.17,7.7 1.51,-0.19 3.02,-0.88 4.56,-0.57"
             style="fill:#ffffff;fill-opacity:1;fill-rule:nonzero;stroke:none"
             id="path3083"
             inkscape:connector-curvature="0" /></g><g
           id="g3085"
           transform="matrix(0.89233393,0,0,0.89233393,272.98265,217.4775)"
           inkscape:export-filename="/home/pavlo/Dropbox/Images/Logos/postgres.png"
           inkscape:export-xdpi="115.1584"
           inkscape:export-ydpi="115.1584"><path
             d="M 0,0 C 3.64,2.6 8.69,2.79 12.71,0.92 12.56,-4.17 6.46,-7.83 2.01,-5.21 0.17,-4.38 -2.14,-1.76 0,0"
             style="fill:#ffffff;fill-opacity:1;fill-rule:nonzero;stroke:none"
             id="path3087"
             inkscape:connector-curvature="0" /></g><g
           id="g3089"
           transform="matrix(0.89233393,0,0,0.89233393,193.93097,217.20997)"
           inkscape:export-filename="/home/pavlo/Dropbox/Images/Logos/postgres.png"
           inkscape:export-xdpi="115.1584"
           inkscape:export-ydpi="115.1584"><path
             d="M 0,0 C 3.8,1.02 8.35,0.53 11.48,-2.01 13.67,-3.79 11.67,-6.74 9.77,-7.81 5.46,-10.99 -1.39,-7.88 -2.27,-2.77 -2.52,-1.27 -1.23,-0.43 0,0"
             style="fill:#ffffff;fill-opacity:1;fill-rule:nonzero;stroke:none"
             id="path3091"
             inkscape:connector-curvature="0" /></g><g
           id="g3105"
           transform="matrix(0.89233393,0,0,0.89233393,254.0384,279.75357)"
           inkscape:export-filename="/home/pavlo/Dropbox/Images/Logos/postgres.png"
           inkscape:export-xdpi="115.1584"
           inkscape:export-ydpi="115.1584"><path
             d="m 0,0 c 15.93,3.42 33.01,2.98 48.36,-2.8 10.63,-4.03 20.07,-11.04 27.16,-19.92 3.38,-4.24 3.81,-9.93 4.03,-15.14 0.15,-12.41 -2.35,-24.68 -5.54,-36.62 -6.1,-22.1 -15.36,-43.28 -27,-63 -1.15,-1.94 -2.4,-3.82 -3.78,-5.6 -0.11,0.54 -0.32,1.64 -0.43,2.19 1.45,3.8 3.56,7.38 4.38,11.41 2.92,11.38 0.45,23.09 -0.6,34.54 -1.1,10.81 2.59,21.32 2.5,32.1 0.42,5.28 -1.67,10.27 -3.7,15.01 -7.34,16.41 -19.02,31.02 -34,41.05 C 7.73,-4.27 3.64,-2.52 0,0"
             style="fill:#326690;fill-opacity:1;fill-rule:nonzero;stroke:none"
             id="path3107"
             inkscape:connector-curvature="0" /></g><g
           id="g3109"
           transform="matrix(0.89233393,0,0,0.89233393,214.54397,278.41507)"
           inkscape:export-filename="/home/pavlo/Dropbox/Images/Logos/postgres.png"
           inkscape:export-xdpi="115.1584"
           inkscape:export-ydpi="115.1584"><path
             d="m 0,0 c 19.6,2.49 40.19,-2.9 55.76,-15.16 12.87,-10.17 23.04,-23.95 28.52,-39.44 -9.11,0.32 -19.44,0.69 -26.8,-5.64 -6.68,-5.63 -7.54,-15.24 -6.04,-23.32 3.49,-19.2 14.81,-35.52 23.17,-52.78 2.22,-4.05 5.21,-7.58 8.04,-11.21 -3.38,-1.71 -7.15,-3.34 -9.07,-6.82 -3.36,-5.42 -2.18,-12.03 -3.01,-18.05 -1.93,-16.87 -3.83,-33.76 -6.58,-50.52 -1.3,-8.03 -4.71,-16.57 -12.3,-20.57 -7.77,-3.95 -16.8,-6.43 -25.54,-5.09 -8.3,1.46 -13.53,9.19 -15.88,16.73 -1.72,6.32 -1.9,12.92 -2.39,19.42 -0.83,15.7 -0.85,31.43 -0.44,47.15 0.34,6.14 -2.81,12.53 -8.28,15.51 -2.65,1.49 -5.75,1.69 -8.72,1.93 2.33,11.55 9.36,21.52 11.77,33.05 3.13,14.27 1.4,29.12 -1.8,43.21 -1.56,7.03 -6.91,13.25 -14.03,14.96 -10.96,2.76 -22.01,-1.53 -31.82,-6.11 1.24,15.93 5.5,32.23 15.26,45.16 C -23.01,-7.97 -11.88,-1.55 0,0"
             style="fill:#326690;fill-opacity:1;fill-rule:nonzero;stroke:none"
             id="path3111"
             inkscape:connector-curvature="0" /></g><g
           id="g3113"
           transform="matrix(0.89233393,0,0,0.89233393,140.00705,277.23728)"
           inkscape:export-filename="/home/pavlo/Dropbox/Images/Logos/postgres.png"
           inkscape:export-xdpi="115.1584"
           inkscape:export-ydpi="115.1584"><path
             d="m 0,0 c 17.45,3.36 35.35,-0.2 52.1,-5.31 -7.39,-8.12 -13.14,-17.68 -16.5,-28.15 -4.57,-13.98 -6.66,-28.86 -5.57,-43.55 0.63,-10.35 0.36,-20.75 -1.08,-31.02 -1.81,-13.41 3.57,-27.2 13.53,-36.25 -6.78,-7.93 -13.97,-15.49 -20.54,-23.6 -2.9,-3.42 -6.82,-7.49 -11.76,-6.47 -5.78,1.67 -9.46,6.95 -12.68,11.69 -8.7,13.92 -13.95,29.64 -18.75,45.25 -5.38,18.47 -9.92,37.24 -12.53,56.32 -1.3,14.52 -0.49,30.09 6.94,43.02 C -21.28,-8.28 -10.9,-2.04 0,0"
             style="fill:#326690;fill-opacity:1;fill-rule:nonzero;stroke:none"
             id="path3115"
             inkscape:connector-curvature="0" /></g><g
           id="g3117"
           transform="matrix(0.89233393,0,0,0.89233393,272.98265,217.4775)"
           inkscape:export-filename="/home/pavlo/Dropbox/Images/Logos/postgres.png"
           inkscape:export-xdpi="115.1584"
           inkscape:export-ydpi="115.1584"><path
             d="M 0,0 C -2.14,-1.76 0.17,-4.38 2.01,-5.21 6.46,-7.83 12.56,-4.17 12.71,0.92 8.69,2.79 3.64,2.6 0,0 m -2.37,2.4 c 6.42,4.56 14.82,3.54 22.24,3.08 -0.32,-10.26 -3.48,-20.32 -2.45,-30.65 0.93,-12.78 4.64,-26.52 -1.39,-38.64 -8.08,16.08 -18.53,31.43 -22.17,49.34 -1.03,5.7 -1.29,12.91 3.77,16.87"
             style="fill:#326690;fill-opacity:1;fill-rule:nonzero;stroke:none"
             id="path3119"
             inkscape:connector-curvature="0" /></g><g
           id="g3121"
           transform="matrix(0.89233393,0,0,0.89233393,193.93097,217.20997)"
           inkscape:export-filename="/home/pavlo/Dropbox/Images/Logos/postgres.png"
           inkscape:export-xdpi="115.1584"
           inkscape:export-ydpi="115.1584"><path
             d="m 0,0 c -1.23,-0.43 -2.52,-1.27 -2.27,-2.77 0.88,-5.11 7.73,-8.22 12.04,-5.04 1.9,1.07 3.9,4.02 1.71,5.8 C 8.35,0.53 3.8,1.02 0,0 m -22.62,-3.91 c 8.05,5.2 17.46,9.28 27.21,8.72 5.05,-0.22 9.71,-3.79 10.92,-8.76 4.43,-17.64 5.8,-37.26 -2.68,-53.96 -2.96,-6.44 -5.36,-13.12 -7.43,-19.89 -14.11,-0.14 -26.11,11.78 -28.61,25.21 -1.71,7.59 0.52,15.23 0.78,22.84 0.59,8.61 -0.02,17.23 -0.19,25.84"
             style="fill:#326690;fill-opacity:1;fill-rule:nonzero;stroke:none"
             id="path3123"
             inkscape:connector-curvature="0" /></g><g
           id="g3125"
           transform="matrix(0.89233393,0,0,0.89233393,287.20636,138.08681)"
           inkscape:export-filename="/home/pavlo/Dropbox/Images/Logos/postgres.png"
           inkscape:export-xdpi="115.1584"
           inkscape:export-ydpi="115.1584"><path
             d="M 0,0 C 2.09,1.54 5.06,2.96 7.48,1.28 17.75,-4.13 29.69,-1.49 40.61,-0.17 33.94,-6.66 24.69,-9.7 15.6,-10.68 9.58,-11.4 3.33,-11.61 -2.48,-9.62 -2.45,-6.33 -2.63,-2.44 0,0"
             style="fill:#326690;fill-opacity:1;fill-rule:nonzero;stroke:none"
             id="path3127"
             inkscape:connector-curvature="0" /></g><g
           id="g3129"
           transform="matrix(0.89233393,0,0,0.89233393,194.91262,126.86116)"
           inkscape:export-filename="/home/pavlo/Dropbox/Images/Logos/postgres.png"
           inkscape:export-xdpi="115.1584"
           inkscape:export-ydpi="115.1584"><path
             d="m 0,0 c 5.9,3.17 8.24,10.16 13.75,13.75 6,0.85 10.39,-8.07 5.85,-12.29 -8.86,-12 -26.59,-14.29 -39.4,-7.76 6.32,2.93 13.71,2.7 19.8,6.3"
             style="fill:#326690;fill-opacity:1;fill-rule:nonzero;stroke:none"
             id="path3131"
             inkscape:connector-curvature="0" /></g><g
           id="g3161"
           transform="matrix(0.89233393,0,0,0.89233393,241.76881,284.03704)"
           inkscape:export-filename="/home/pavlo/Dropbox/Images/Logos/postgres.png"
           inkscape:export-xdpi="115.1584"
           inkscape:export-ydpi="115.1584"><path
             d="m 0,0 c -1.54,-0.31 -3.05,0.38 -4.56,0.57 -16.89,3.43 -35.52,2.08 -50.17,-7.7 -17.58,6.33 -36.49,10.15 -55.21,8.19 -13.92,-1.45 -27.9,-7.91 -35.89,-19.77 -10.1,-14.79 -11.47,-33.68 -9.86,-51.02 3.25,-23.02 8.86,-45.68 16,-67.78 4.71,-13.78 9.88,-27.66 18.25,-39.69 4.25,-5.91 9.9,-11.87 17.5,-12.8 6.76,-0.82 12.87,3.37 17.01,8.33 7.16,8.58 14.53,16.99 22.17,25.13 4.99,-2.45 10.41,-3.86 15.95,-4.27 -3,-3.56 -5.47,-8.2 -10.24,-9.6 -6.43,-2.48 -13.97,-2.15 -19.64,-6.43 -3.27,-2.34 -3.43,-7.44 -0.49,-10.13 5.31,-5.16 13.14,-6.27 20.21,-6.86 10.02,-0.76 20.14,2.61 27.75,9.17 -0.05,-15.93 0.03,-31.9 1.82,-47.74 0.89,-9.28 4.9,-18.52 11.95,-24.76 6.65,-5.8 16.13,-7.01 24.57,-5.54 8.28,1.57 16.8,4.06 23.27,9.72 6.88,6.06 9.81,15.22 11.18,24.01 2.47,15.74 4.35,31.57 6.14,47.39 17.71,-2.99 37.74,0.4 50.97,13.33 2.83,2.66 5.51,7.27 2.72,10.89 -2.87,3.32 -7.76,2.41 -11.55,1.66 -9.1,-1.62 -18.99,-3.51 -27.81,0.27 15.74,24.83 28.12,51.95 35.04,80.57 2.52,10.88 4.46,22 4.1,33.2 -0.28,6.27 -1.15,12.94 -4.98,18.13 C 86.72,-11.03 72.98,-1.92 57.83,2.15 38.91,7.28 18.61,5.75 0,0 m 0.06,8.04 c 17.08,4.48 35.15,6.39 52.63,3.07 15.87,-2.86 30.97,-10.31 42.46,-21.7 5.08,-5.09 10.24,-10.65 12.15,-17.79 3.42,-12.27 2.06,-25.26 0,-37.64 -5.42,-29.7 -17.15,-57.95 -32.17,-84.04 6.76,0 13.26,2.15 19.96,2.59 6.57,0.43 13.59,-3.61 15.17,-10.27 1.98,-7.09 -2.48,-13.96 -7.7,-18.36 -13.29,-11.83 -31.73,-15.74 -49.1,-14.74 -1.04,-17.93 -1.4,-36.57 -8.97,-53.21 -3.38,-7.42 -8.71,-14.04 -15.7,-18.33 -6.69,-4.17 -14.46,-6.14 -22.12,-7.6 -8.38,-1.51 -17.57,-0.69 -24.8,4.13 -6.68,4.25 -10.87,11.4 -13.27,18.78 -5.93,15.43 -5.34,32.25 -6.04,48.5 -11.76,-4.73 -25.14,-4.72 -37.07,-0.62 -4.19,1.46 -7.89,4 -11.07,7.06 -6.14,-5.1 -14.6,-7.72 -22.45,-5.5 -9.99,2.72 -17.06,11.1 -22.37,19.53 -9.21,15.14 -14.99,32.05 -20.09,48.94 -5.63,19.51 -10.41,39.33 -12.99,59.49 -1.45,17.92 0.16,37.09 9.83,52.72 7.77,12.8 21.4,21.35 35.97,24.2 20.65,4.2 41.94,0.14 61.75,-6.05 6.41,2.88 12.81,6.03 19.83,7.17 11.93,2.42 24.21,1.31 36.16,-0.33"
             style="fill:#000000;fill-opacity:1;fill-rule:nonzero;stroke:none"
             id="path3163"
             inkscape:connector-curvature="0" /></g></g></g></g></svg>
