<?xml version="1.0" encoding="UTF-8" standalone="no"?>
<svg
   width="1200"
   height="263.75269"
   viewBox="0 0 1200 263.75269"
   fill="none"
   version="1.1"
   id="svg2195"
   sodipodi:docname="singlestore2025.svg"
   inkscape:version="1.2.2 (b0a8486541, 2022-12-01)"
   xmlns:inkscape="http://www.inkscape.org/namespaces/inkscape"
   xmlns:sodipodi="http://sodipodi.sourceforge.net/DTD/sodipodi-0.dtd"
   xmlns="http://www.w3.org/2000/svg"
   xmlns:svg="http://www.w3.org/2000/svg">
  <defs
     id="defs2199" />
  <sodipodi:namedview
     id="namedview2197"
     pagecolor="#505050"
     bordercolor="#ffffff"
     borderopacity="1"
     inkscape:showpageshadow="0"
     inkscape:pageopacity="0"
     inkscape:pagecheckerboard="1"
     inkscape:deskcolor="#505050"
     showgrid="false"
     inkscape:zoom="2.7859443"
     inkscape:cx="370.96937"
     inkscape:cy="155.24359"
     inkscape:window-width="3700"
     inkscape:window-height="2348"
     inkscape:window-x="0"
     inkscape:window-y="0"
     inkscape:window-maximized="1"
     inkscape:current-layer="svg2195" />
  <path
     d="m 323.11555,159.05997 v -0.91446 h 18.55116 v 0.91446 c 0,14.14601 8.0793,24.97748 32.69675,24.97748 h 1.83688 c 18.9202,0 29.20543,-8.07972 29.20543,-20.2035 v -0.91445 c 0,-11.38526 -6.61148,-16.34398 -18.18,-19.10453 l -29.39206,-7.16527 c -17.82144,-4.40472 -29.93516,-14.14602 -29.93516,-33.42647 v -1.8375 c 0,-21.302484 16.89672,-35.448291 45.91972,-35.448291 h 1.83688 c 28.46733,0 44.82095,15.429521 44.82095,36.547271 v 0.91445 h -18.18211 v -0.91445 c 0,-10.840279 -8.63288,-21.302485 -26.63046,-21.302485 h -1.83687 c -18.36663,0 -28.09828,8.448985 -28.09828,20.388235 v 0.91425 c 0,9.7327 5.69724,15.42973 18.36453,18.55073 l 29.57659,7.16527 c 17.99758,4.40472 29.57449,13.59223 29.57449,33.24174 v 1.8375 c 0,22.041 -17.08124,36.0025 -47.20302,36.0025 h -1.83687 c -37.28684,0 -51.06338,-16.52871 -51.06338,-40.22248 z"
     fill="#ffffff"
     id="path2117"
     style="fill:#000000;stroke-width:2.09689" />
  <path
     d="m 437.53217,67.40547 h 17.26577 v 19.104524 h -17.26577 z m 0,36.73221 h 17.26577 V 197.814 h -17.26577 z"
     fill="#ffffff"
     id="path2119"
     style="fill:#000000;stroke-width:2.09689" />
  <path
     d="m 471.30882,104.14649 h 16.52976 v 15.06026 c 8.26383,-12.30852 15.42889,-16.15924 28.65186,-16.15924 h 1.83687 c 19.28926,0 30.30631,10.10175 30.30631,33.79552 v 60.97998 h -17.26787 v -58.59729 c 0,-16.15923 -6.0579,-22.595 -17.81934,-22.595 h -1.83897 c -14.69079,0 -23.13914,11.20073 -23.13914,27.36899 v 53.8145 h -17.26786 v -93.67653 z"
     fill="#ffffff"
     id="path2121"
     style="fill:#000000;stroke-width:2.09689" />
  <path
     d="m 562.57791,204.80376 h 17.26577 v 0.91424 c 0,8.63414 8.0793,12.49241 23.32576,12.49241 h 0.73811 c 13.96107,0 22.77848,-4.22732 22.77848,-16.89713 V 180.0108 c -7.16506,10.84027 -13.77655,14.87573 -26.99951,14.87573 h -1.83688 c -23.13914,0 -37.10021,-17.82102 -37.10021,-44.99625 v -1.8375 c 0,-27.18425 13.96107,-44.99646 36.91569,-44.99646 h 1.83687 c 13.77654,0 20.57255,3.85953 27.73971,15.98352 V 104.1641 h 16.52766 v 97.16679 c 0,21.30186 -15.24436,29.75231 -40.59153,29.75231 h -0.7381 c -30.49083,0 -39.86182,-11.3861 -39.86182,-25.34759 z m 39.86182,-23.33353 h 1.83687 c 15.61342,0 23.5082,-10.28628 23.5082,-31.58876 v -1.8375 c 0,-21.30248 -7.89478,-31.58897 -23.5082,-31.58897 h -1.83687 c -15.06194,0 -23.5103,10.47102 -23.5103,31.58897 v 1.8375 c 0,21.11775 8.44836,31.58876 23.5103,31.58876 z"
     fill="#ffffff"
     id="path2123"
     style="fill:#000000;stroke-width:2.09689" />
  <path
     d="m 660.28025,67.40547 h 17.26786 V 197.814 h -17.26786 z"
     fill="#ffffff"
     id="path2125"
     style="fill:#000000;stroke-width:2.09689" />
  <path
     d="m 691.85097,151.89469 v -1.8375 c 0,-30.12073 14.87532,-47.01849 41.6903,-47.01849 h 1.83897 c 25.34717,0 39.12372,14.691 39.12372,45.36552 0,2.93648 -0.18453,5.14324 -0.37115,6.61148 H 709.4795 c 0.55358,20.75729 9.00193,31.04378 24.06177,31.04378 h 1.83897 c 16.34314,0 19.83445,-10.47101 19.83445,-15.79878 v -0.91446 h 17.4503 v 0.91446 c 0,11.56999 -7.89478,28.65227 -36.73117,28.65227 h -1.83687 c -27.73971,0 -42.24598,-16.89776 -42.24598,-47.01828 z m 65.02446,-9.73249 v -0.36947 c 0,-18.366 -8.07931,-26.08506 -21.67132,-26.08506 h -1.83688 c -13.03844,0 -22.41152,8.44878 -23.69482,26.44573 h 47.20302 z"
     fill="#ffffff"
     id="path2127"
     style="fill:#000000;stroke-width:2.09689" />
  <path
     d="m 786.61767,159.05997 v -0.91446 h 18.55116 v 0.91446 c 0,14.14601 8.0793,24.97748 32.69675,24.97748 h 1.83687 c 18.92021,0 29.20754,-8.07972 29.20754,-20.2035 v -0.91445 c 0,-11.38526 -6.61149,-16.34398 -18.18211,-19.10453 l -29.39206,-7.16527 c -17.81934,-4.40472 -29.93515,-14.14602 -29.93515,-33.42647 v -1.8375 c 0,-21.302484 16.89881,-35.448291 45.91972,-35.448291 h 1.83687 c 28.46733,0 44.82095,15.429521 44.82095,36.547271 v 0.91445 h -18.1821 v -0.91445 c 0,-10.840279 -8.63288,-21.302485 -26.63046,-21.302485 h -1.83687 c -18.36663,0 -28.10667,8.448985 -28.10667,20.388235 v 0.91425 c 0,9.7327 5.69724,15.42973 18.36663,18.55073 l 29.57449,7.16527 c 17.99758,4.40472 29.57658,13.59223 29.57658,33.24174 v 1.8375 c 0,22.041 -17.08333,36.0025 -47.20511,36.0025 h -1.83687 c -37.28474,0 -51.06129,-16.52871 -51.06129,-40.22248 z"
     fill="#ffffff"
     id="path2129"
     style="fill:#000000;stroke-width:2.09689" />
  <path
     d="m 912.42877,178.89421 v -60.61072 h -16.89671 v -14.14581 h 13.4054 c 2.75321,0 4.22942,-1.65297 4.22942,-4.413525 V 79.705178 h 16.52975 v 24.432502 h 23.32367 v 14.14581 h -23.32367 v 57.4895 c 0,6.0577 2.39045,7.8952 7.89478,7.8952 H 953.0203 V 197.814 h -21.48679 c -13.59202,0 -19.10474,-6.24202 -19.10474,-18.91979 z"
     fill="#ffffff"
     id="path2131"
     style="fill:#000000;stroke-width:2.09689" />
  <path
     d="m 961.82094,151.89469 v -1.8375 c 0,-30.12073 14.32173,-47.01849 42.24386,-47.01849 h 1.839 c 27.9221,0 42.2439,16.89776 42.2439,47.01849 v 1.8375 c 0,30.12052 -14.3302,47.01828 -42.2439,47.01828 h -1.839 c -27.92213,0 -42.24386,-16.89776 -42.24386,-47.01828 z m 42.24386,33.611 h 1.839 c 15.4289,0 24.0618,-10.10175 24.0618,-33.611 v -1.8375 c 0,-23.50924 -8.6329,-33.61099 -24.0618,-33.61099 h -1.839 c -15.42888,0 -24.06176,10.10175 -24.06176,33.61099 v 1.8375 c 0,23.50925 8.63288,33.611 24.06176,33.611 z"
     fill="#ffffff"
     id="path2133"
     style="fill:#000000;stroke-width:2.09689" />
  <path
     d="m 1062.461,104.14649 h 16.5277 v 17.26702 c 7.5362,-13.03823 11.0254,-17.26702 22.4115,-17.26702 h 11.753 v 15.97471 h -15.0598 c -11.0149,0 -18.3666,9.1873 -18.3666,23.13998 v 54.55303 h -17.2658 v -93.67653 z"
     fill="#ffffff"
     id="path2135"
     style="fill:#000000;stroke-width:2.09689" />
  <path
     d="m 1117.347,151.89469 v -1.8375 c 0,-30.12073 14.8753,-47.01849 41.6903,-47.01849 h 1.839 c 25.3451,0 39.1237,14.691 39.1237,45.36552 0,2.93648 -0.1845,5.14324 -0.3711,6.61148 h -64.6534 c 0.5536,20.75729 9.002,31.04378 24.0618,31.04378 h 1.839 c 16.3431,0 19.8344,-10.47101 19.8344,-15.79878 v -0.91446 h 17.4503 v 0.91446 c 0,11.56999 -7.8947,28.65227 -36.7311,28.65227 h -1.839 c -27.7376,0 -42.2439,-16.89776 -42.2439,-47.01828 z m 65.0245,-9.73249 v -0.36947 c 0,-18.366 -8.0793,-26.08506 -21.6713,-26.08506 h -1.8369 c -13.0385,0 -22.4115,8.44878 -23.6948,26.44573 h 47.203 z"
     fill="#ffffff"
     id="path2137"
     style="fill:#000000;stroke-width:2.09689" />
  <path
     d="m 222.09594,120.89579 c -0.54519,1.89915 -1.15119,3.78048 -1.81171,5.62679 -0.69407,1.94297 -1.44056,3.85093 -2.25834,5.73225 l -27.35158,-0.5714 c 0,0.55379 0,1.09898 -0.0176,1.65277 l 74.34365,1.5561 c 0.0965,-4.3869 -0.0189,-8.7652 -0.36066,-13.10848 l -42.55212,-0.88803 z"
     fill="#ffffff"
     id="path2139"
     style="fill:#000000;stroke-width:2.09689" />
  <path
     d="m 164.70332,3.3408647 -0.74733,1.8550736 c 4.12331,1.5473556 8.11474,3.3848364 11.95686,5.4684917 l -26.45453,65.577949 c 1.60894,0.492349 3.21788,1.063751 4.80921,1.705608 0.079,0.03523 0.15811,0.06144 0.22856,0.09667 L 182.30437,9.0994815 c -0.079,-0.035165 -0.1581,-0.061544 -0.22856,-0.096708 -5.73226,-2.3122369 -11.53476,-4.1936684 -17.37249,-5.6619088 z"
     fill="#ffffff"
     id="path2141"
     style="fill:#000000;stroke-width:2.09689" />
  <path
     d="m 191.29834,21.091534 c 3.31455,2.751745 6.44436,5.723452 9.36323,8.8973 l -37.74312,52.311031 c 1.31873,0.808769 2.60223,1.661573 3.83311,2.558412 l 43.51165,-60.294089 c -4.66956,-3.375987 -9.60164,-6.479505 -14.78011,-9.266519 l -4.18476,5.802672 z"
     fill="#ffffff"
     id="path2143"
     style="fill:#000000;stroke-width:2.09689" />
  <path
     d="m 211.27391,43.897483 c 2.24996,3.586935 4.26297,7.332184 6.03065,11.218344 l -42.88658,36.424389 c 0.89684,0.931856 1.75845,1.890133 2.59364,2.883638 l 56.67172,-48.135081 c -3.50809,-4.149739 -7.28039,-8.097128 -11.30641,-11.816166 l -11.09463,9.424876 z"
     fill="#ffffff"
     id="path2145"
     style="fill:#000000;stroke-width:2.09689" />
  <path
     d="m 243.64565,59.722477 -20.98774,10.462206 c 1.05473,4.017845 1.85574,8.141372 2.38416,12.35255 L 183.21002,103.3914 c 0.50975,0.91424 1.0021,1.8375 1.45943,2.76936 l 66.52709,-33.162684 c -2.25835,-4.562825 -4.783,-8.993966 -7.56138,-13.275599 z"
     fill="#ffffff"
     id="path2147"
     style="fill:#000000;stroke-width:2.09689" />
  <path
     d="m 225.77179,96.674443 c -0.0881,4.167357 -0.44874,8.281867 -1.06522,12.308517 l -35.95783,8.07091 c 0.20214,0.77376 0.39547,1.5473 0.56259,2.32986 l 72.54158,-16.28233 c -1.03795,-4.624474 -2.31286,-9.187509 -3.8331,-13.671281 l -32.24802,7.235726 z"
     fill="#ffffff"
     id="path2149"
     style="fill:#000000;stroke-width:2.09689" />
  <path
     d="m 263.03975,154.76198 -49.57669,-13.32844 c -1.86413,3.27932 -3.913,6.45317 -6.13738,9.4775 l -18.39242,-4.94089 c -0.10547,0.41309 -0.21095,0.81758 -0.32523,1.23087 l 71.79384,19.29786 c 1.06312,-3.90356 1.93333,-7.81593 2.62949,-11.74571 z"
     fill="#ffffff"
     id="path2151"
     style="fill:#000000;stroke-width:2.09689" />
  <path
     d="m 201.72532,157.84776 c -2.26841,2.55841 -4.67732,4.99373 -7.20931,7.28835 l -10.69076,-5.89917 c -0.16713,0.31642 -0.34285,0.63305 -0.51877,0.94947 l 65.09491,35.91443 c 1.7488,-3.17385 3.38437,-6.43556 4.89623,-9.79393 l -51.58111,-28.45915 z"
     fill="#ffffff"
     id="path2153"
     style="fill:#000000;stroke-width:2.09689" />
  <path
     d="m 188.30902,170.32318 c -2.44413,1.87273 -4.98493,3.62237 -7.60478,5.25753 l -5.05538,-4.6683 c -0.18453,0.21094 -0.37807,0.41308 -0.57141,0.62424 l 54.61551,50.45655 c 2.23319,-2.40094 4.3783,-4.89833 6.43535,-7.4817 l -47.81929,-44.17951 z"
     fill="#ffffff"
     id="path2155"
     style="fill:#000000;stroke-width:2.09689" />
  <path
     d="m 212.47752,237.5458 -38.40238,-58.20223 c -1.52087,0.78256 -3.05957,1.52108 -4.62447,2.22438 0,0 -2.8222,1.21326 -3.46385,1.47704 l 39.30803,59.5648 c 2.45294,-1.60832 4.84465,-3.29841 7.19106,-5.06399 z"
     fill="#ffffff"
     id="path2157"
     style="fill:#000000;stroke-width:2.09689" />
  <path
     d="m 159.4632,185.38365 c -0.65067,0.20214 -4.77398,1.39779 -5.99605,1.6968 0,0 -1.15161,0.2814 -1.46824,0.35165 l 24.66106,69.35893 c 2.42652,-0.86182 4.82662,-1.78445 7.2005,-2.78676 L 159.4632,185.37484 Z"
     fill="#ffffff"
     id="path2159"
     style="fill:#000000;stroke-width:2.09689" />
  <path
     d="m 144.64052,188.75104 c -2.16273,0.46593 -4.35188,0.79996 -6.56745,1.01972 l 7.42025,73.98193 c 2.20676,-0.21807 4.40472,-0.49067 6.58506,-0.81569 l -7.43786,-74.17715 z"
     fill="#ffffff"
     id="path2161"
     style="fill:#000000;stroke-width:2.09689" />
  <path
     d="m 129.59745,189.96409 c -1.84631,-0.0967 -3.69241,-0.27259 -5.53872,-0.54498 l -10.50624,73.61435 c 1.8375,0.26211 3.68381,0.49067 5.52132,0.68568 l 10.52364,-73.74624 z"
     fill="#ffffff"
     id="path2163"
     style="fill:#000000;stroke-width:2.09689" />
  <path
     d="m 42.936899,142.85774 c 0.545191,-1.89894 1.15182,-3.78047 1.811081,-5.62657 0.694699,-1.94319 1.442029,-3.85094 2.259605,-5.73226 l 27.351161,0.5714 c 0,-0.554 0,-1.09898 0.01761,-1.65277 L 0.03303522,128.86123 c -0.09670947,4.38711 0.01758365,8.76541 0.36046236,13.10869 l 42.55220842,0.88782 z"
     fill="#ffffff"
     id="path2165"
     style="fill:#000000;stroke-width:2.09689" />
  <path
     d="m 100.33833,260.41235 0.74733,-1.85574 c -4.123315,-1.54541 -8.114739,-3.38438 -11.956864,-5.46659 l 26.454534,-65.57887 c -1.60894,-0.49235 -3.21767,-1.06375 -4.809,-1.7056 -0.0793,-0.0352 -0.15832,-0.0614 -0.22877,-0.0967 L 82.737276,254.6543 c 0.07905,0.0357 0.158315,0.0608 0.228561,0.0965 5.732259,2.31286 11.534763,4.19377 17.372493,5.66159 z"
     fill="#ffffff"
     id="path2167"
     style="fill:#000000;stroke-width:2.09689" />
  <path
     d="m 73.734712,242.66221 c -3.314548,-2.75112 -6.444571,-5.7245 -9.363437,-8.89709 l 37.743335,-52.31145 c -1.31895,-0.80877 -2.602451,-1.66158 -3.833323,-2.55841 l -43.510608,60.2945 c 4.668509,3.37599 9.600596,6.47938 14.779067,9.26615 l 4.184966,-5.80209 z"
     fill="#ffffff"
     id="path2169"
     style="fill:#000000;stroke-width:2.09689" />
  <path
     d="m 53.759561,219.85647 c -2.250589,-3.58777 -4.264019,-7.33281 -6.031066,-11.21856 L 90.61486,172.21353 c -0.896839,-0.93186 -1.75845,-1.89014 -2.593639,-2.88364 l -56.671927,48.13403 c 3.508092,4.14974 7.279762,8.09818 11.306413,11.81805 l 11.095256,-9.4255 z"
     fill="#ffffff"
     id="path2171"
     style="fill:#000000;stroke-width:2.09689" />
  <path
     d="m 21.397051,204.03105 20.986061,-10.4622 C 41.327958,189.551 40.527996,185.42769 40.000419,181.2163 L 81.83184,160.36213 c -0.509963,-0.91424 -1.002312,-1.83729 -1.459433,-2.76936 l -66.536289,33.16269 c 2.259479,4.56282 4.782726,8.99396 7.560933,13.27559 z"
     fill="#ffffff"
     id="path2173"
     style="fill:#000000;stroke-width:2.09689" />
  <path
     d="m 39.261896,167.0793 c 0.08786,-4.16735 0.448314,-8.28207 1.063751,-12.30852 l 35.95846,-8.07091 c -0.20214,-0.77375 -0.395682,-1.5473 -0.562804,-2.32985 L 3.180369,160.64353 c 1.0374346,4.62448 2.3122369,9.18751 3.8332136,13.67129 L 39.270703,167.0793 Z"
     fill="#ffffff"
     id="path2175"
     style="fill:#000000;stroke-width:2.09689" />
  <path
     d="m 1.9936066,108.99176 49.5768044,13.32845 c 1.863922,-3.27933 3.912371,-6.45317 6.136748,-9.47751 l 18.392422,4.94089 c 0.105474,-0.4133 0.210947,-0.81758 0.325227,-1.23087 L 4.622356,97.246054 C 3.5585425,101.14941 2.6881667,105.06178 1.9936066,108.99176 Z"
     fill="#ffffff"
     id="path2177"
     style="fill:#000000;stroke-width:2.09689" />
  <path
     d="m 63.307524,105.90578 c 2.268412,-2.55842 4.677316,-4.99374 7.209306,-7.288362 l 10.690767,5.899382 c 0.167122,-0.31642 0.343051,-0.63305 0.51877,-0.94947 L 16.632002,67.644095 c -1.749559,3.173848 -3.384837,6.435555 -4.897027,9.793929 l 51.581356,28.459156 z"
     fill="#ffffff"
     id="path2179"
     style="fill:#000000;stroke-width:2.09689" />
  <path
     d="m 76.732631,93.430349 c 2.444131,-1.872729 4.984929,-3.622371 7.604779,-5.257524 l 5.055384,4.668299 c 0.184526,-0.210947 0.378069,-0.413087 0.571402,-0.624033 L 35.349735,41.760965 c -2.233185,2.400097 -4.3783,4.897069 -6.435765,7.481692 l 47.818661,44.178885 z"
     fill="#ffffff"
     id="path2181"
     style="fill:#000000;stroke-width:2.09689" />
  <path
     d="m 52.563916,26.208357 38.402592,58.201605 c 1.520871,-0.782558 3.059567,-1.521081 4.624473,-2.224377 0,0 2.8222,-1.213259 3.464057,-1.477047 L 59.755608,21.144166 c -2.452938,1.608941 -4.844228,3.296935 -7.191692,5.064191 z"
     fill="#ffffff"
     id="path2183"
     style="fill:#000000;stroke-width:2.09689" />
  <path
     d="m 105.56965,78.37009 c 0.65066,-0.20235 4.77398,-1.397994 5.99604,-1.696801 0,0 1.15182,-0.281402 1.46824,-0.351648 L 88.372868,6.9631315 c -2.426517,0.8615897 -4.826613,1.7847441 -7.200289,2.786993 L 105.56965,78.378897 Z"
     fill="#ffffff"
     id="path2185"
     style="fill:#000000;stroke-width:2.09689" />
  <path
     d="m 120.39275,75.0027 c 2.16273,-0.465928 4.35188,-0.799963 6.56745,-1.019716 L 119.54875,0 c -2.20676,0.21979566 -4.40472,0.4923406 -6.58506,0.81763691 l 7.43786,74.17625609 z"
     fill="#ffffff"
     id="path2187"
     style="fill:#000000;stroke-width:2.09689" />
  <path
     d="m 135.4442,73.789441 c 1.84631,0.09667 3.69262,0.272595 5.53893,0.544981 L 151.48056,0.72085301 c -1.8375,-0.26375269 -3.68381,-0.4923385 -5.52131,-0.68575889 L 135.43539,73.780634 Z"
     fill="#ffffff"
     id="path2189"
     style="fill:#000000;stroke-width:2.09689" />
</svg>
