<svg xmlns="http://www.w3.org/2000/svg" width="100%" height="100%" viewBox="0 0 244 70" fill-rule="evenodd" stroke-linejoin="round" stroke-miterlimit="2" xmlns:v="https://vecta.io/nano"><g transform="matrix(2.04879 0 0 1.52816 979.32 -456.758)"><path d="M-434.607 334.795l-5.592-25.215h3.09l4.636 22.236h.338l4.636-22.236h3.09l-5.578 25.215h-4.621zm19.602 0l.118-4.577-.103-.592v-6.077l.015-.967c0-1.486-.282-2.578-.846-3.275s-1.469-1.046-2.715-1.046c-1.011 0-1.947.191-2.811.572a12.99 12.99 0 0 0-2.34 1.322l.265-3.236c.392-.303.854-.598 1.383-.888s1.128-.526 1.795-.71 1.398-.276 2.193-.276c1.089 0 2.011.174 2.767.523a4.47 4.47 0 0 1 1.825 1.509c.461.658.797 1.447 1.008 2.368s.316 1.947.316 3.078v12.272h-2.87zm-4.871.434c-1.423 0-2.512-.47-3.267-1.411s-1.133-2.279-1.133-4.015v-.592c0-1.841.424-3.206 1.273-4.094s2.185-1.503 4.01-1.845l4.327-.829.162 2.802-4.15.789c-.991.184-1.697.503-2.119.957s-.633 1.121-.633 2.003v.276c0 .881.204 1.559.611 2.032s1.028.71 1.862.71c.765 0 1.423-.171 1.972-.513a4.03 4.03 0 0 0 1.339-1.371c.343-.572.579-1.207.706-1.904l.397 2.585h-.53c-.157.789-.417 1.519-.78 2.19a4.28 4.28 0 0 1-1.523 1.618c-.652.408-1.494.612-2.524.612zm11.214-26.557h2.884v26.123h-2.884zm17.763 26.123l-6.225-11.325h-1.957v-3.137h1.957l6.137-10.753h3.355l-7.27 12.608-.015-.947 7.476 13.555h-3.458zm-10.905 0V309.58h2.929v25.215h-2.929zm21.913.454c-2.296 0-4.015-.733-5.158-2.2s-1.714-3.581-1.714-6.343v-3.157c0-2.723.532-4.831 1.597-6.324s2.617-2.239 4.658-2.239c1.383 0 2.536.339 3.458 1.016s1.614 1.634 2.075 2.871.692 2.703.692 4.4v.73l-.044 1.361-.118 1.322h-2.649l.037-1.934.007-1.657c0-1.065-.128-1.966-.383-2.703s-.638-1.299-1.148-1.687-1.153-.582-1.928-.582c-1.148 0-2.001.437-2.561 1.312s-.839 2.121-.839 3.739v1.815l.015.454v1.717c0 .723.081 1.381.243 1.973a3.98 3.98 0 0 0 .78 1.529c.358.427.822.756 1.391.987s1.261.345 2.075.345c.922 0 1.788-.158 2.597-.474s1.572-.737 2.288-1.263l-.265 3.295c-.648.513-1.401.924-2.259 1.233s-1.808.464-2.848.464zm-5.342-8.563v-2.9h10.199v2.9h-10.199zm20.544 4.696l-1.531.888 4.047-16.771h2.958l-6.549 26.084h-2.914l2.281-9.056 1.295 1.46h-3.252l-4.518-18.487h2.987l3.591 15.883h1.604z" fill-rule="nonzero"/><path d="M215.181 480.339l-44.603-27.906V333.166l109.077-62.531 106.434 62.635v125.453L277.965 519.62l-37.538-23.486v-50.286-6.865l-20.354-12.735v-64.677l58.934-33.785 57.587 33.889v67.773l-45.593 25.678v-27.295c13.667-5.263 23.477-18.791 23.477-34.757 0-20.579-16.298-37.108-36.144-37.108s-36.144 16.529-36.144 37.108c0 15.966 9.809 29.494 23.476 34.757v51.717l13.036 8.156 79.94-45.024v-93.716l-79.167-46.589-81.45 46.693v88.161l17.156 10.734v32.376zm63.153-104.315c8.981 0 16.086 7.738 16.086 17.05s-7.105 17.05-16.086 17.05-16.087-7.738-16.087-17.05 7.106-17.05 16.087-17.05z" transform="matrix(.136612 0 0 .183154 -501.303 249.327)"/></g></svg>
