<svg id="Layer_1" data-name="Layer 1" xmlns="http://www.w3.org/2000/svg" xmlns:xlink="http://www.w3.org/1999/xlink" viewBox="0 0 463.91 130"><defs><style>.cls-1{fill:#ffc43c;}.cls-2{fill:url(#linear-gradient);}.cls-3{fill:#1a7db6;}.cls-4{fill:url(#linear-gradient-2);}.cls-5{fill:#303030;}</style><linearGradient id="linear-gradient" x1="964.75" y1="34.82" x2="919.68" y2="63.4" gradientTransform="matrix(-1, 0, 0, 1, 1041.59, 0)" gradientUnits="userSpaceOnUse"><stop offset="0" stop-color="#da9728"/><stop offset="0.54" stop-color="#ffc43c"/></linearGradient><linearGradient id="linear-gradient-2" x1="46.38" y1="94.56" x2="-29.88" y2="53" gradientUnits="userSpaceOnUse"><stop offset="0" stop-color="#005a8e"/><stop offset="0.54" stop-color="#1a7db6"/></linearGradient></defs><title>VespaLogo copy</title><polygon class="cls-1" points="70.5 0 19.76 34.46 19.76 93.78 70.5 58.01 121.24 93.78 121.24 34.46 70.5 0"/><polygon class="cls-2" points="70.5 58.01 70.5 0 121.24 34.46 121.24 93.78 70.5 58.01"/><polygon class="cls-3" points="50.74 71.99 0 36.22 0 95.54 50.74 130 101.48 95.54 101.48 36.22 50.74 71.99"/><polygon class="cls-4" points="50.74 71.99 50.74 130 0 95.54 0 36.22 50.74 71.99"/><path class="cls-5" d="M186.72,95.48h-17.8a1,1,0,0,1-1-.71l-21.76-62.7a1.06,1.06,0,0,1,1-1.41h9.29A10,10,0,0,1,166.08,38l11.74,42.13h.35L189.86,38a10,10,0,0,1,9.63-7.33h8.87a1.06,1.06,0,0,1,1,1.41l-21.64,62.7A1.07,1.07,0,0,1,186.72,95.48Z"/><path class="cls-5" d="M301.58,29.54c15.51,0,26,7.68,26.85,19.4a1.06,1.06,0,0,1-1.06,1.15H313.53a1,1,0,0,1-1-.88c-.76-4.61-4.94-7.48-11.14-7.48S291,44.5,291,48.68c0,3.24,2.83,5.41,8.66,6.77l12.18,2.65c13,2.94,18.2,7.94,18.2,17.6,0,12.6-11.6,20.9-28.56,20.9C285,96.6,274.44,88.88,273,77.08a1.06,1.06,0,0,1,1-1.2h14.74a1,1,0,0,1,1,.8c1.13,5,5.45,7.73,12.21,7.73s11-2.65,11-6.89c0-3.35-2.23-5.12-8.12-6.53l-11.95-2.71c-12.19-2.77-18.49-9.06-18.49-18.54C274.44,37.55,285.16,29.54,301.58,29.54Z"/><path class="cls-5" d="M400.11,63c0,20.61-10.12,33.21-26.37,33.21-9.36,0-16.6-4.3-20.14-11.66h-.35v22.09a10,10,0,0,1-10,10h-6.13a1.06,1.06,0,0,1-1.06-1.06V31.72a1.06,1.06,0,0,1,1.06-1.06H352A1.07,1.07,0,0,1,353,31.72v10h.35c3.41-7.3,11-11.83,20.13-11.83C389.93,29.9,400.11,42.44,400.11,63Zm-17.6,0c0-11.65-5.83-19.25-14.72-19.25s-14.6,7.71-14.6,19.31,5.83,19.25,14.6,19.25S382.51,74.82,382.51,63Z"/><path class="cls-5" d="M405.27,76.82c0-11.78,9-18.43,25.55-19.43l15.2-.94a1.05,1.05,0,0,0,1-1.06v-3.3c0-6.24-4.29-9.65-11.36-9.65-5.89,0-10.11,2.94-11.25,7.23a1.07,1.07,0,0,1-1,.77h-13.7a1,1,0,0,1-1.07-1.13c1.1-11.75,12.09-19.77,27.78-19.77,16.66,0,27.55,8.54,27.55,21.49V94.42a1.05,1.05,0,0,1-1.06,1.06h-5.53a10,10,0,0,1-10-10H447c-3.53,6.77-11.53,10.78-19.84,10.78C414.63,96.25,405.27,88.42,405.27,76.82ZM447,71.7V66.93l-13.6.94c-7.18.47-11,3.3-11,8.07s4.07,7.77,10.31,7.77C440.66,83.71,447,78.76,447,71.7Z"/><path class="cls-5" d="M237.77,29.54c-19,0-31.15,13.19-31.15,33.8s12.07,33.26,31.8,33.26c14.68,0,25.84-7.24,28.84-18.35a2,2,0,0,0-1.93-2.55h-12a2.19,2.19,0,0,0-1.8,1.15c-2,4.32-6.83,6.92-12.79,6.92a14.89,14.89,0,0,1-11-4.32,16,16,0,0,1-4.16-11.34V67.05h42.74a2,2,0,0,0,2-2v-3.3C268.32,42,256.43,29.54,237.77,29.54Zm-14,26.85c.59-8.3,6.35-14,14.19-14s13.48,5.53,13.77,14Z"/></svg>
